<svg xmlns="http://www.w3.org/2000/svg" xmlns:xlink="http://www.w3.org/1999/xlink" width="401.623" height="76.907" viewBox="0 0 401.623 76.907">
  <defs>
    <clipPath id="clip-path">
      <path id="Path_5" data-name="Path 5" d="M102.327-13.978c.5,0,1.872-.13,2.018.093a2.2,2.2,0,0,1,0,1.151c-.055.056-.77-.075-.808.149s-.019.427.092.465.789.575.991.538c.072-.013.182.277.3.652h.53a.764.764,0,0,0-.062-.056l0,0c-.109,0-.164-.093-.164-.277,0-.027,0-.056,0-.083,0,0,0,0,0-.008s0,0,0,0l.006-.09c.012-.115.04-.2.1-.2.08,0,.171-.038.186-.118,0-.21.018-.744.018-.977,0-.278-.129-.2-.2-.241,0,0,0-.007-.007-.008a.388.388,0,0,1-.122-.217,2.605,2.605,0,0,1-.018-.31h0c0-.037,0-.063.006-.094a.37.37,0,0,1,.011-.086c.013-.077.034-.143.075-.16.129-.056.514-.112.606-.019h0c.049,0,.1,0,.129,0,.082.01.087.276.073.652a6.577,6.577,0,0,0,.11,1.628c.106.036.21.366.218.673H392.461v4.753H108.673a2.13,2.13,0,0,1,.186.33c.092.241.4,1.021.532,1.337a1.259,1.259,0,0,1,.11.594c0,.13.238.26.238.372,0,.046-.006.127-.009.21a1.654,1.654,0,0,1,.191.368c.008.025.006.059.012.089a.411.411,0,0,1,.119.3,1.186,1.186,0,0,1-.349.687h0s0,0,0,0l-.108.059c-.3.09-.651-.333-.7-.448a2.516,2.516,0,0,1-.08-.466,5.387,5.387,0,0,0-.231-.5l-.018-.033c-.211-.3-.527-.722-.754-.987a1.243,1.243,0,0,1-.08-.133c-.249-.023-.268-.185-.268-.387,0-.068,0-.176,0-.291-.048-.219-.072-.415-.088-.506,0,0,0,0,0,0-.055-.015-.135-.149-.2-.289a.852.852,0,0,1-.216-.246c0-.014,0-.038,0-.057h-.311a1.332,1.332,0,0,1,.06.332c-.038.316-.11.557-.257.557a.777.777,0,0,1-.5-.334c-.042-.064-.137-.293-.247-.555h-2.1a.27.27,0,0,1-.221.185c-.147.038-.128.112-.422.093a1.68,1.68,0,0,1-.766-.278h-.754a.658.658,0,0,1,.142.353c.018.26-.44.575-.532.613a.654.654,0,0,1-.623-.39,1.637,1.637,0,0,0-.52-.576H98.6c.288.108.714.257.906.335.275.112.183.316.166.446a2.342,2.342,0,0,1-.825.91,11.619,11.619,0,0,1-1.284.353,2.022,2.022,0,0,1-.715-.149c-.073-.056-.092-.446-.221-.446s-.2.3-.349.39-.147.2-.257.185a.442.442,0,0,1-.312-.316,5.594,5.594,0,0,1-.312-.854c.018-.131.074-.26.183-.278s-.019-.446-.019-.446a1.777,1.777,0,0,0-.142-.131h-.62a1.092,1.092,0,0,0-.265.428c.019.185.4.39.459.669a11.979,11.979,0,0,0,.33,1.522c.092.13,0,1.077.2,1.094s.294-.222.514-.24.679-.056.789-.26.606-.056.808-.316A1.017,1.017,0,0,1,98.42-3.6c.166.018.312.056.367.223s.193.01.275.093.166-.241.294-.278.221-.093.312-.056.166.482.349.594.2.2.312.2.257-.334.459-.52a3.166,3.166,0,0,1,.808-.5,2.327,2.327,0,0,0,.808-.26c.24-.168.532-.075.789-.112a.509.509,0,0,0,.3-.127l.108-.114c.092-.093.294-.019.349.112a2.47,2.47,0,0,1,.092.465.627.627,0,0,1-.147.26c-.11.112-.5,0-.551.075s-.147.2-.055.278.221.13.275.241.238.2.275.334a1.224,1.224,0,0,1,.036.372,1.164,1.164,0,0,1-.44.687.277.277,0,0,0-.166.334c0,.093.238.223.294.334a.737.737,0,0,1,.036.482c-.055.091-.349.185-.349.409s.275.372.312.538,0,1.244.128,1.337a1.128,1.128,0,0,0,.568.149c.183,0,.715-.334.715-.465s-.551-.409-.606-.575-.019-.613-.257-.743a.283.283,0,0,1,.019-.5c.166-.075.257-.3.257-.835s.055-1.374.477-1.522.77.019.972-.353a4.549,4.549,0,0,0,.551-1.244c.036-.334.019-.223.128-.241s.312.223.385.409.055.966.33,1.115.477,1.634.568,1.931a1.516,1.516,0,0,0,.5.65c.074.037.092.037.092.13s-.623.149-.606.3.074.594-.147.706-.368.112-.385.26.349.52.477.557.147.278.128.353-.147.482-.4.52-.551-.316-.679-.334a.359.359,0,0,0-.385.353,1.886,1.886,0,0,1-.679,1.356,1.42,1.42,0,0,0-.715.947,5.127,5.127,0,0,1-.606,1.318,4.047,4.047,0,0,1-1.34,1.225c-.385.093-.881-.037-.972.037s-.183.278-.4.3-.33-.149-.568-.316-.623-.575-.642-.78.092-.928-.147-.947-.421.019-.421.093,0,.168-.11.168-.514.075-.606.278-.367.353-.385.52-.2.2-.257.223-.33-.093-.33-.185-.294-.8-.532-.835-.11-.5-.11-.613.055-.5.166-.5.789.075.77-.185.036-1.1-.128-1.1-.092.3-.183.409a1.153,1.153,0,0,1-.385.278c-.073.018-.238-.223-.44-.223s-.606-.037-.789.2-.368.26-.349.427.275.278.4.409.421.037.44.223S96.986,6.3,97.226,6.4s.294.26.2.353a.826.826,0,0,1-.422.2c-.147.019-.477-.2-.789-.3s-.77-.52-1.083-.594-.092-.241-.092-.241.166-.223.019-.278a2.711,2.711,0,0,0-.7.019s-.11.2-.221.241-.2-.2-.2-.2a6.671,6.671,0,0,1-.972-.075c-.11-.056-.825-.984-1.027-1.04s-.753-.075-.77,0-.128.334-.036.39.5.056.551.149a1.98,1.98,0,0,0,.514.538,2.573,2.573,0,0,0,1.468.594,3.859,3.859,0,0,1,1.944.594c.22.2.587,1.337.734,1.356s.459.075.459.353,0,.724.128.854a3.825,3.825,0,0,0,.532.557c.128.056.294.26.238.39a.443.443,0,0,1-.4.2,4.408,4.408,0,0,1-.77-.093c-.055-.056-.092-.223-.183-.223a.189.189,0,0,0-.166.2,1.284,1.284,0,0,1-.294.5c-.092.093-.459.316-.385.5s.238.185.459,0a4.574,4.574,0,0,1,.862-.482c.2-.093.183-.241.275-.149a1.617,1.617,0,0,1,.2.706c.019.241.055,1.188.055,1.188a2.242,2.242,0,0,1-.825.482,1.5,1.5,0,0,0-.825.594c-.147.2-.11.409-.5.427a2,2,0,0,1-1.321-.52c-.238-.3-.734-1.115-.936-1.151s-.459-.316-.606-.185a.265.265,0,0,0,.055.409,7.752,7.752,0,0,1,.955,1.151,3.76,3.76,0,0,0,1.119.762,3.608,3.608,0,0,0,.936.149.689.689,0,0,0,.551-.52c.092-.335.33-.39.642-.39a2.31,2.31,0,0,1,.715.056c.109.056.2.26.294.26s.221.019.312-.223.623-.353.77-.482,0-.557.147-.669.238-.631.459-.631.368.278.44.482.074.149-.019.39-.166.835,0,.854.5-.223.679-.372.44-.334.606-.241a1.8,1.8,0,0,1,.551.65c.019.13.074.446,0,.52s-.422.112-.532.2-.275.185-.275.26.257.056.257.223-.385.2-.514.334-.587.112-.606.316.074.372.238.39.036.093.036.3-.019.3-.294.465-.936.481-1.083.854a1.07,1.07,0,0,1-.551.613.289.289,0,0,1-.4-.241c-.036-.222.2-.52.128-.743s-.2-.185-.275-.185a.4.4,0,0,0-.33.26c-.055.185.055.557-.092.613a.31.31,0,0,1-.459-.185c-.11-.278-.11-.353-.2-.353s-.074.278-.183.334-1.174.13-1.266.316-.074.2-.312.223-1.083-.037-1.138.093-.459.223-.844.223-.587.2-.808.241a1.048,1.048,0,0,1-.715-.241c-.128-.13-.257,0-.257.112a2.051,2.051,0,0,1,.074.446,2.6,2.6,0,0,1-.368.8c-.093.13-1.046-.093-1.064.26a1.341,1.341,0,0,1-.385.891,1.968,1.968,0,0,0-.44.557c-.055.093-.166.093-.294.093s-.5-.168-.5-.465-.166-.65,0-.743.257.037.257-.446.036-.631-.147-.669-.183-.446-.312-.594-.2-.52-.349-.594-.128-.334-.514-.112.036.317.147.39a.624.624,0,0,1,.33.446c.036.26.019.427.128.465a.468.468,0,0,1,.275.334.8.8,0,0,1-.2.5c-.11.13-.221.13-.221.334s-.055.39.055.482.166.168.183.5.568.482.587.762-.5.3-.9.5a4.832,4.832,0,0,0-1.284.928c-.183.259-2.422,2.432-2.623,2.859a1.586,1.586,0,0,1-.551.631c-.147.149-.055.779-.036.947s-.055.223-.183.316-.532.409-.551.669.11.334.349.391.532.2.514.481-.459.724-.514,1.132-.312,1.021-.679,1.04-.568-.538-.551-.779a4.774,4.774,0,0,0,.221-1.151c0-.631-.092-.8-.183-.891s-.349-.3-.385-.128,0,.128.036.184,0-.036,0,.613a7.167,7.167,0,0,1-.11,1.671c-.092.149-.532,1.281-1.211,1.337s-1.064-.316-1.3-.3a.835.835,0,0,0-.606.5c-.074.223-.532.168-.77.168s-1.174-.037-1.357.131-.753.259-.9.352-.77.094-.862.3-.422.278-.587.316S58.915,18.431,58.915,18.431h0l-12.744.124a1.677,1.677,0,0,1-.465.149.621.621,0,0,1-.685-.4.655.655,0,0,1,.025-.768,3.911,3.911,0,0,0,.147-.693,23.685,23.685,0,0,0-1.468-2.079c-.122-.124-.1.149-.232.2s-.459.112-.568-.185.074-.891-.11-.928S41.4,13.84,41.4,13.84a.7.7,0,0,1-.459-.465c-.11-.372-.2-.409-.33-.409a.228.228,0,0,1-.238-.168c-.018-.093-.055-.093-.147-.093s-.147.277-.257.3-.221.128-.221.2.019.093-.532.093-.5-.26-.789-.26-12.439-.948-13.979-.5-1.67.057-2.073.187-.825.556-1.009.594a3.818,3.818,0,0,0-1.138.669c-.33.3-.734.13-1.138.278s-.991.075-1.046.223a.659.659,0,0,1-.606.465c-.423.038-2.422.446-2.9.594a2.167,2.167,0,0,1-.9.037c-.238.018-.917-.316-1.357-.3a9.352,9.352,0,0,1-1.376-.076c-.275-.037-.221-.222-.44-.222s-.036.278-.532.3-6-.26-6.385-.278-2.44-.056-2.44-.056a4.729,4.729,0,0,1,.076-1.337,6.891,6.891,0,0,0,.642-2.247,2.4,2.4,0,0,1,1.584-.712,3.178,3.178,0,0,0,.82-.087c.384-.189.355-1,.422-1.412.1-.594,1.835-2.959,3.2-2.76s.871.05,1.115-.346.241-1.337,1.072-1.337.731,1.386,2,.4,1.613-1.634,2.787-1.584,1.027-.421,1.1-.793.568-.316.843-.353S18.156.375,19.2-.088s1.138-1.021,1.174-1.5.623-.631.789-.278.257.3.368.3a.328.328,0,0,0,.257-.334c0-.185.955-.575,1.083-.075s.385.687.568.687a2.645,2.645,0,0,0,1.6-1.429C25.311-3.579,26.6-3.8,27.055-3.8s1.3-.13,1.486.185.936-.278,1.211-.743a16.161,16.161,0,0,1,1.053-1.818H.308V-10.93H33.321c.022-.423.1-.832.319-.93.422-.185.257-1.374.257-1.429s21.9-.026,28-.02h2.845c6.6-.008,33.465-.046,35.087-.049h.077a6.966,6.966,0,0,1,1.407-.173c.183.074.238.112.312.056S101.832-13.978,102.327-13.978ZM84.055,27.336l.4.279-.128.463-.257.52-.477.408-.33-.259.11-.39.109-.279.055-.594Zm3.083-3.826a1.865,1.865,0,0,1,.622.057,1.246,1.246,0,0,1-.183.872c-.147.093-.459.056-.551.278s-.11.446-.44.482-.606-.075-.734.13-.514.372-.568.594-.294.5-.421.5a.3.3,0,0,1-.275-.334,1.677,1.677,0,0,1,.385-.65c.2-.241,1.211-1.021,1.486-1.318S86.863,23.548,87.138,23.51Zm17.574-11.992c.166,0,.257.038.257.149s-.238.185-.275.277.019.206-.128.206-.164.466-.183.669-.167.111-.221.278-.22.036-.275.2-.238,1.078-.532,1.115a15.3,15.3,0,0,0-1.835,2.506,3.11,3.11,0,0,1-.385.372c-.055.056,0,.8-.294.835a3.056,3.056,0,0,0-1.229,1.188c-.019.223-.2.2-.257.353s-.147-.019-.2.185a1.323,1.323,0,0,1-.808.557.679.679,0,0,1-.5-.52,4.882,4.882,0,0,1,.568-.41c.183-.093.349-.5.422-.631s.147-.631.275-.743.092-.427.2-.538a4.517,4.517,0,0,1,.808-.3,1.877,1.877,0,0,0,.606-.984,12.488,12.488,0,0,1,.642-1.318,2.9,2.9,0,0,0,.808-.835c.532-.13.827-.909,1.138-1.169s.366-1.113.568-1.132S104.546,11.518,104.712,11.518Zm-8.106,7.261c.062,0,.217.021.232.111.019.112-.166.223-.275.3s-1.138.056-1.155.2-.183.168-.294.168-.221-.149-.4-.149a.657.657,0,0,0-.365.165,3.235,3.235,0,0,0-1.275.436c-.128.185-.151.395-.555.395a.564.564,0,0,1-.544-.619c0-.259.444-.505.719-.542A1.066,1.066,0,0,0,93.334,19c.238-.185,1.3-.02,1.578-.075s.276-.15.514-.15h1.18Zm9.353-8.339c.238-.019.458.519.422.687s-.385.168-.477.168-.11.482-.11.482c-.422.279-.386-.816-.349-.984A.587.587,0,0,1,105.959,10.44Zm1.742-.928c.093,0,.331-.131.367.112s.276.206.257.372-.454.093-.459.185a.273.273,0,0,1-.092.184c-.053.083-.2.056-.33.056-.073,0-.133.046-.166-.037a2.322,2.322,0,0,1-.055-.631C107.225,9.531,107.609,9.512,107.7,9.512ZM97.74,7.544c.257,0,.422.557.44.91s.092.5.238.613.33.223.33.353a.582.582,0,0,1-.257.372.8.8,0,0,1-.679-.168,1.771,1.771,0,0,1-.514-.984C97.28,8.344,97.483,7.544,97.74,7.544ZM110.948,3.83l.143.017c.021,0,.034-.018.06-.015s.036.02.056.027c.059,0,.116.008.162.008.146,0,.076.38.074.784h0c.02.46.35.5.35.721a.874.874,0,0,1-.033.207c.015.126-.007.255-.186.257h0c-.04.01-.069.1-.094.233a1.161,1.161,0,0,1-.034.62.794.794,0,0,0-.06.231c-.013.138-.028.274-.045.409a1.7,1.7,0,0,1-.153.809c-.166.185-.369.147-.46.222s.036.166-.4.26a1.747,1.747,0,0,0-.19.055,1.159,1.159,0,0,1-.137.045c-.237.094-.4.207-.572.272-.238.091-.241.528-.508.555-.055.046-.1.082-.169,0a.4.4,0,0,1-.053-.187,1.268,1.268,0,0,1-.059-.5,2.5,2.5,0,0,1,.623-1,4.315,4.315,0,0,1,.572-.168c.238-.072.422-.184.458-.389s-.036-.519.147-.631l.074-.074a2.037,2.037,0,0,0,.125-.772c0-.017,0-.031,0-.046a.875.875,0,0,1,.023-.183c0-.014.006-.014.008-.023h0c.012-.023.021-.021.034-.01a.118.118,0,0,0,.045.011h0c.072-.036.136-.179.143-.425a4.884,4.884,0,0,0-.249-.544.419.419,0,0,1-.032-.082.593.593,0,0,1-.027-.063c-.092-.316.166-.316.221-.316.009,0,.014-.014.022-.019a.184.184,0,0,0,.053-.074.3.3,0,0,0,.016-.075A.3.3,0,0,1,110.948,3.83Zm51.809-38.382v.6h-.709c-.337.032-1.125-.061-1.3.834a4.693,4.693,0,0,0,.512,1.766h0L164.72-23.8l3.079-7.993a3.594,3.594,0,0,0,.264-1.324.75.75,0,0,0-.108-.442.84.84,0,0,0-.387-.286,2.786,2.786,0,0,0-.93-.106h0v-.6h4.62v.6a2.113,2.113,0,0,0-.883.261,2.633,2.633,0,0,0-.682.736,10.433,10.433,0,0,0-.527,1.258h0L163.384-16.75a7.728,7.728,0,0,1-2.193,3.286,4.186,4.186,0,0,1-2.612,1.112,2.1,2.1,0,0,1-1.5-.556,1.711,1.711,0,0,1-.588-1.275,1.475,1.475,0,0,1,.426-1.1,1.6,1.6,0,0,1,1.171-.417,3.986,3.986,0,0,1,1.395.36,3.213,3.213,0,0,0,.775.245,1.585,1.585,0,0,0,1.016-.506,5.392,5.392,0,0,0,1.107-1.962h0l1.007-2.6-5.1-11.3a9.137,9.137,0,0,0-.743-1.26,3.638,3.638,0,0,0-.636-.769,3.4,3.4,0,0,0-1.147-.457h0v-.6ZM125.2-34.963a4.575,4.575,0,0,1,3.668,1.768,8.5,8.5,0,0,1,1.8,5.632,9.534,9.534,0,0,1-2.169,6.418,5.678,5.678,0,0,1-4.5,2.078,4.56,4.56,0,0,1-2.041-.343,8.038,8.038,0,0,1-1.436-1.242h0v4.828a6.241,6.241,0,0,0,.183,1.956,1.377,1.377,0,0,0,.638.662A3.826,3.826,0,0,0,123-12.96h0v.606h-7.655v-.606h.4a2.243,2.243,0,0,0,1.333-.346,1.171,1.171,0,0,0,.471-.581,7.146,7.146,0,0,0,.168-2.038h0V-30.1a7.971,7.971,0,0,0-.127-1.85,1.114,1.114,0,0,0-.407-.589.8.8,0,0,0-.591-.195,2.815,2.815,0,0,0-.973.229h0l-.191-.524,4.5-1.867h.606v2.308A8.488,8.488,0,0,1,125.2-34.963Zm159.167-7.245v16.746a22.687,22.687,0,0,0,.122,3.169,1.392,1.392,0,0,0,.394.8.956.956,0,0,0,.63.226,3.636,3.636,0,0,0,1.18-.273h0l.18.564-4.46,1.823h-.753v-2.114a7.584,7.584,0,0,1-2.146,1.62,5.264,5.264,0,0,1-2.263.492,5.63,5.63,0,0,1-4.295-2.024,7.441,7.441,0,0,1-1.836-5.2,9.309,9.309,0,0,1,2.032-5.814,6.32,6.32,0,0,1,5.229-2.637,4.55,4.55,0,0,1,3.279,1.241h0v-2.723a21.889,21.889,0,0,0-.123-3.113,1.349,1.349,0,0,0-.384-.79,1.024,1.024,0,0,0-.656-.21,3.535,3.535,0,0,0-1.132.258h0l-.214-.564,4.476-1.472ZM177.958-34.755a5.573,5.573,0,0,1,4.132,1.629,6.165,6.165,0,0,1,1.617,4.461H173.371a7.184,7.184,0,0,0,1.617,5.031,5.511,5.511,0,0,0,3.932,2.1c1.542.025,3.547-1.115,4.752-3.54h0l.507.322a7.728,7.728,0,0,1-2.251,3.862,5.757,5.757,0,0,1-4.344,1.735,6.08,6.08,0,0,1-4.614-2.062,7.812,7.812,0,0,1-1.92-5.544,8.294,8.294,0,0,1,1.968-5.882A6.47,6.47,0,0,1,177.958-34.755Zm85.712,0a5.572,5.572,0,0,1,4.132,1.629,6.161,6.161,0,0,1,1.618,4.461h-10.34a7.184,7.184,0,0,0,1.617,5.031,5.516,5.516,0,0,0,3.933,2.1c1.542.025,3.547-1.115,4.752-3.54h0l.507.322a7.726,7.726,0,0,1-2.249,3.862,5.755,5.755,0,0,1-4.343,1.735,6.078,6.078,0,0,1-4.614-2.062,7.812,7.812,0,0,1-1.92-5.544c0-3.642.656-4.475,1.968-5.882A6.47,6.47,0,0,1,263.67-34.755Zm-9,.3a2.059,2.059,0,0,1,1.465.541,1.66,1.66,0,0,1,.58,1.25A1.482,1.482,0,0,1,256.3-31.6a1.333,1.333,0,0,1-1,.435,2.119,2.119,0,0,1-1.263-.556A2.069,2.069,0,0,0,253-32.275a.958.958,0,0,0-.628.322,5.559,5.559,0,0,0-1.5,1.844h0v7.5a4.364,4.364,0,0,0,.306,1.855,1.663,1.663,0,0,0,.74.726,3.244,3.244,0,0,0,1.531.29h0v.581H245.9v-.581a3.131,3.131,0,0,0,1.673-.354,1.372,1.372,0,0,0,.564-.822,8.421,8.421,0,0,0,.08-1.564h0V-28.2a23.6,23.6,0,0,0-.106-3.072,1.208,1.208,0,0,0-.385-.718,1.081,1.081,0,0,0-.7-.226,3.163,3.163,0,0,0-1.126.242h0l-.162-.58,4.46-1.806h.677v2.9C252.111-33.679,253.377-34.454,254.674-34.454Zm-199.118-.3a5.573,5.573,0,0,1,4.132,1.629,6.165,6.165,0,0,1,1.617,4.461H50.969a7.184,7.184,0,0,0,1.617,5.031,5.511,5.511,0,0,0,3.932,2.1c1.542.025,3.547-1.115,4.752-3.54h0l.507.322a7.727,7.727,0,0,1-2.251,3.862,5.757,5.757,0,0,1-4.344,1.735,6.08,6.08,0,0,1-4.614-2.062,7.812,7.812,0,0,1-1.92-5.544,8.294,8.294,0,0,1,1.968-5.882A6.47,6.47,0,0,1,55.557-34.755Zm153.735-.184v5.073h-.518a6.666,6.666,0,0,0-1.529-3.251,3.367,3.367,0,0,0-2.375-.861,2.562,2.562,0,0,0-1.773.6,1.762,1.762,0,0,0-.673,1.333,2.483,2.483,0,0,0,.5,1.56,5.569,5.569,0,0,0,1.977,1.414h0l2.289,1.154q3.184,1.608,3.183,4.242a4.061,4.061,0,0,1-1.483,3.275,5.023,5.023,0,0,1-3.314,1.243,11.047,11.047,0,0,1-3.01-.487,2.987,2.987,0,0,0-.848-.163.622.622,0,0,0-.564.422h-.518V-24.7h.518a6.126,6.126,0,0,0,1.678,3.429,3.971,3.971,0,0,0,2.774,1.155,2.438,2.438,0,0,0,1.765-.658,2.122,2.122,0,0,0,.683-1.584,2.564,2.564,0,0,0-.761-1.885,13.226,13.226,0,0,0-3.034-1.934,8.982,8.982,0,0,1-2.98-2.113,3.751,3.751,0,0,1-.707-2.341,4.206,4.206,0,0,1,1.215-3.072,4.22,4.22,0,0,1,3.145-1.236,7.178,7.178,0,0,1,2.053.373,4.68,4.68,0,0,0,1.067.244.6.6,0,0,0,.392-.114,1.572,1.572,0,0,0,.328-.5h.517ZM109.5-34.5a3.67,3.67,0,0,1,2.071.6A3.976,3.976,0,0,1,113-31.953a11.2,11.2,0,0,1,.339,3.223h0v6.276a5.7,5.7,0,0,0,.208,1.88,1.351,1.351,0,0,0,.592.6,2.976,2.976,0,0,0,1.408.247h0v.574h-7.229v-.574h.3A2.554,2.554,0,0,0,110.1-20.1a1.42,1.42,0,0,0,.528-.813,10,10,0,0,0,.065-1.545h0V-28.73a6.984,6.984,0,0,0-.419-2.841,2.168,2.168,0,0,0-2-1.02,3.839,3.839,0,0,0-1.7.422A9.266,9.266,0,0,0,104.5-30.6h0v.86l-.013,7.285a5.993,5.993,0,0,0,.168,1.863,1.352,1.352,0,0,0,.632.613,3.624,3.624,0,0,0,1.584.247h0v.574H99.464v-.574a3.408,3.408,0,0,0,1.672-.286,1.493,1.493,0,0,0,.632-.86,8.488,8.488,0,0,0,.08-1.577h0V-28.73a6.132,6.132,0,0,0-.515-2.889,2.255,2.255,0,0,0-1.967-1.02,3.556,3.556,0,0,0-1.712.461A6.6,6.6,0,0,0,95.607-30.6h0l-.013,8.144a5.413,5.413,0,0,0,.2,1.863,1.376,1.376,0,0,0,.592.645,3.815,3.815,0,0,0,1.591.215h0v.574H90.732v-.574a3.234,3.234,0,0,0,1.408-.215,1.386,1.386,0,0,0,.608-.686,5.233,5.233,0,0,0,.208-1.823h0V-28.03a20.075,20.075,0,0,0-.144-3.106,1.268,1.268,0,0,0-.351-.725,1,1,0,0,0-.656-.2,3.088,3.088,0,0,0-1.072.239h0l-.24-.573,4.413-1.784.7-.324v2.782a14.979,14.979,0,0,1,3.438-2.448,4.378,4.378,0,0,1,1.647-.335,3.668,3.668,0,0,1,2.367.8,3.934,3.934,0,0,1,1.327,2.31,10.883,10.883,0,0,1,2.783-2.508A4.957,4.957,0,0,1,109.5-34.5Zm27.814-7.452v19.478a5.37,5.37,0,0,0,.2,1.828,1.414,1.414,0,0,0,.611.681,4.908,4.908,0,0,0,1.792.233h0v.577h-7.852v-.579a6.11,6.11,0,0,0,1.846-.208,1.379,1.379,0,0,0,.571-.689,5.42,5.42,0,0,0,.207-1.843h0V-35.813a23.328,23.328,0,0,0-.112-3.054,1.74,1.74,0,0,0-.512-.877.932.932,0,0,0-.626-.208,3.693,3.693,0,0,0-1.265.19h0l-.269-.561,4.7-1.63Zm55.027,7.2a5.573,5.573,0,0,1,4.132,1.629,6.161,6.161,0,0,1,1.618,4.461h-10.34a7.185,7.185,0,0,0,1.617,5.031,5.516,5.516,0,0,0,3.933,2.1c1.542.025,3.547-1.115,4.752-3.54h0l.507.322a7.725,7.725,0,0,1-2.25,3.862,5.756,5.756,0,0,1-4.343,1.735,6.078,6.078,0,0,1-4.614-2.062,7.812,7.812,0,0,1-1.92-5.544,8.3,8.3,0,0,1,1.968-5.882A6.47,6.47,0,0,1,192.343-34.755Zm153.32.207a3.249,3.249,0,0,1,1.982.612,4.1,4.1,0,0,1,1.322,2.015,9.823,9.823,0,0,1,.339,3h0v6.382a5.7,5.7,0,0,0,.215,1.926,1.317,1.317,0,0,0,.547.637,2.938,2.938,0,0,0,1.391.228h0v.588h-6.966v-.588h.291a2.243,2.243,0,0,0,1.378-.318,1.688,1.688,0,0,0,.545-.939,10.213,10.213,0,0,0,.062-1.534h0v-6.121a6.543,6.543,0,0,0-.5-2.962,1.761,1.761,0,0,0-1.684-.922,4.993,4.993,0,0,0-3.645,2.122h0v7.883a5.964,5.964,0,0,0,.169,1.877,1.465,1.465,0,0,0,.593.693,3.459,3.459,0,0,0,1.53.221h0v.588h-6.967v-.588h.308a1.611,1.611,0,0,0,1.455-.58,4.511,4.511,0,0,0,.239-2.134v-5.549a25.389,25.389,0,0,0-.116-3.281c-.122-.658-.251-1.178-.98-1.256a2.807,2.807,0,0,0-1.032.246h0l-.23-.588,4.371-1.51h.661v2.507C342.592-34,344.166-34.549,345.663-34.549ZM88.284-41.223l-.015,4.852h-.734a7.181,7.181,0,0,0-.5-2.127,2.445,2.445,0,0,0-1.137-.992,4.086,4.086,0,0,0-1.933-.529h-6.85V-31.3h5.433a3.449,3.449,0,0,0,2.334-.569,3.841,3.841,0,0,0,.874-2.636h.557v7.681h-.557a9,9,0,0,0-.423-2.066,1.952,1.952,0,0,0-.889-.895,4.229,4.229,0,0,0-1.9-.326H77.112v7.275a9.569,9.569,0,0,0,.025,1.712,1.369,1.369,0,0,0,.517.573,2.39,2.39,0,0,0,1.145.188H83.51a6.348,6.348,0,0,0,2.192-.26,3.718,3.718,0,0,0,1.506-1.025A12.525,12.525,0,0,0,89.12-24.69h.924l-1.5,5.533H70.8v-.6h.723a2.7,2.7,0,0,0,1.37-.374,1.342,1.342,0,0,0,.655-.781,8.259,8.259,0,0,0,.174-2.132h0V-37.383a5.066,5.066,0,0,0-.392-2.588,2.23,2.23,0,0,0-1.807-.651H70.8v-.6Zm-74.991-.846.615,7.13h-.835a7.581,7.581,0,0,0-1.355-3.086A5.529,5.529,0,0,0,9.548-40a5.287,5.287,0,0,0-2.693-.758,3.534,3.534,0,0,0-2.6,1.024c-.686.684-.548,1.544-.548,2.415a2.877,2.877,0,0,0,.65,1.825c.626.807,1.9,1.7,4.256,3.044a21.994,21.994,0,0,1,3.655,2.63,6.089,6.089,0,0,1,1.619,2.076,5.765,5.765,0,0,1,.567,2.5,5.836,5.836,0,0,1-1.808,4.286,6.314,6.314,0,0,1-4.653,1.8A9.311,9.311,0,0,1,6.31-19.3a16.073,16.073,0,0,1-1.944-.589A8.3,8.3,0,0,0,2.5-20.4a.764.764,0,0,0-.6.242,2,2,0,0,0-.325,1H.831L0-26.385H.56A20.17,20.17,0,0,0,2.4-22.722c.444.781,1.358,1.014,2.272,1.53a5.989,5.989,0,0,0,3,.775,3.406,3.406,0,0,0,2.678-1.1,3.4,3.4,0,0,0,1.1-2.519,3.6,3.6,0,0,0-.416-1.63A9.5,9.5,0,0,0,9.175-27.8a24.139,24.139,0,0,0-2.348-1.427,31.149,31.149,0,0,1-3.745-2.511A6.637,6.637,0,0,1,1.391-33.8a5.4,5.4,0,0,1-.575-2.487,5.56,5.56,0,0,1,1.694-4.06,5.834,5.834,0,0,1,4.314-1.7,8.208,8.208,0,0,1,3.466.856,3.391,3.391,0,0,0,1.2.4.864.864,0,0,0,.642-.251,2.057,2.057,0,0,0,.4-1.009h0ZM32.26-34.72a6.806,6.806,0,0,1,3.2.664,3.036,3.036,0,0,1,1.394,1.569,8.953,8.953,0,0,1,.289,2.848h0v5.4a19.478,19.478,0,0,0,.079,2.225c.054.32.14,1.058.782,1.058a1.735,1.735,0,0,0,1.542-.72h0v.905a3.391,3.391,0,0,1-3.316,1.6,1.548,1.548,0,0,1-1.249-.55A2.992,2.992,0,0,1,34.5-21.6a24.272,24.272,0,0,1-2.835,2.039,4.293,4.293,0,0,1-1.842.4,3.283,3.283,0,0,1-2.506-1.052,3.88,3.88,0,0,1-.985-2.767,3.556,3.556,0,0,1,.48-1.877A6.4,6.4,0,0,1,29.1-26.925,35.4,35.4,0,0,1,34.5-29.287h0v-.582a4.866,4.866,0,0,0-.7-3.042,2.5,2.5,0,0,0-2.027-.825,2.26,2.26,0,0,0-1.6.55,1.661,1.661,0,0,0-.608,1.263h0l.032.939a1.622,1.622,0,0,1-.377,1.149,1.281,1.281,0,0,1-.985.405,1.244,1.244,0,0,1-.969-.421A1.664,1.664,0,0,1,26.9-31,3.319,3.319,0,0,1,28.3-33.555,6.038,6.038,0,0,1,32.26-34.72Zm354.106.171a3.249,3.249,0,0,1,1.982.612,4.1,4.1,0,0,1,1.322,2.015,9.818,9.818,0,0,1,.339,3h0v6.382a5.7,5.7,0,0,0,.215,1.926,1.31,1.31,0,0,0,.547.637,2.935,2.935,0,0,0,1.391.228h0v.588H385.2v-.588h.291a2.243,2.243,0,0,0,1.378-.318,1.688,1.688,0,0,0,.545-.939,10.046,10.046,0,0,0,.062-1.534h0v-6.121a6.544,6.544,0,0,0-.5-2.962,1.761,1.761,0,0,0-1.684-.922,4.992,4.992,0,0,0-3.645,2.122h0v7.883a5.964,5.964,0,0,0,.169,1.877,1.466,1.466,0,0,0,.593.693,3.46,3.46,0,0,0,1.53.221h0v.588H376.97v-.588h.307a1.611,1.611,0,0,0,1.455-.58,2.9,2.9,0,0,0,.238-1.47V-28.41a21.95,21.95,0,0,0-.115-2.879c-.122-.658-.251-1.178-.98-1.256a2.808,2.808,0,0,0-1.032.246h0l-.23-.588,4.371-1.51h.661v2.507C383.295-34,384.869-34.549,386.366-34.549Zm-64.6-7.077v.6h-.81a2.071,2.071,0,0,0-1.873.858,4.94,4.94,0,0,0-.39,2.428h0v9.568a21.75,21.75,0,0,0,.227,2.93,6.384,6.384,0,0,0,.818,2.574,4.5,4.5,0,0,0,1.708,1.522,5.723,5.723,0,0,0,2.737.6,7.321,7.321,0,0,0,3.713-.939,4.941,4.941,0,0,0,2.239-2.4,14.407,14.407,0,0,0,.6-4.962h0v-8.888a4.674,4.674,0,0,0-.438-2.574,2.249,2.249,0,0,0-1.809-.712h-.795v-.6h7.489v.6h-.8a2.132,2.132,0,0,0-1.919,1.085,5.1,5.1,0,0,0-.329,2.331h0v8.9a16.32,16.32,0,0,1-.63,5.124,6.384,6.384,0,0,1-2.481,3.124,8.592,8.592,0,0,1-5.031,1.3,9.2,9.2,0,0,1-5.258-1.246,6.716,6.716,0,0,1-2.543-3.351,19.284,19.284,0,0,1-.5-5.407h0v-8.582a4.424,4.424,0,0,0-.538-2.655,2.168,2.168,0,0,0-1.739-.631h-.8v-.6Zm-21.7,2.815v4.3H303.3v1.1h-3.239v10.069a2.744,2.744,0,0,0,.413,1.762,2.448,2.448,0,0,0,1.386.784,1.682,1.682,0,0,0,.967-.322,1.685,1.685,0,0,0,.7-.829h.589a4.953,4.953,0,0,1-1.5,2.315,3.139,3.139,0,0,1-1.888.479h-.5a2.606,2.606,0,0,1-1.362-.4,2.389,2.389,0,0,1-.984-1.145,5.5,5.5,0,0,1-.573-2.3h0V-33.417h-1.938v-.517a12.394,12.394,0,0,0,4.223-4.877h.465ZM147.924-34.865a6.808,6.808,0,0,1,5.544,2.556,7.719,7.719,0,0,1,1.776,5.014,9.251,9.251,0,0,1-.979,4.028,7.011,7.011,0,0,1-2.7,3.073,7.269,7.269,0,0,1-3.825,1.035,6.5,6.5,0,0,1-5.462-2.669,8.128,8.128,0,0,1-1.711-5.047,8.766,8.766,0,0,1,1.038-4.053,6.974,6.974,0,0,1,2.73-2.975A7.163,7.163,0,0,1,147.924-34.865ZM21.405-38.811v4.3h3.238v1.1H21.405v10.069a2.745,2.745,0,0,0,.412,1.762A2.452,2.452,0,0,0,23.2-20.8a1.686,1.686,0,0,0,.969-.322,1.677,1.677,0,0,0,.7-.829h.589a4.936,4.936,0,0,1-1.5,2.315,3.137,3.137,0,0,1-1.888.479h-.5a2.61,2.61,0,0,1-1.362-.4,2.394,2.394,0,0,1-.984-1.145,5.5,5.5,0,0,1-.574-2.3h0V-33.417H16.713v-.517a12.38,12.38,0,0,0,4.222-4.877h.47Zm22.994,0v4.3h3.238v1.1H44.4v10.069a2.745,2.745,0,0,0,.412,1.762A2.452,2.452,0,0,0,46.2-20.8a1.686,1.686,0,0,0,.969-.322,1.677,1.677,0,0,0,.7-.829h.589a4.936,4.936,0,0,1-1.5,2.315,3.137,3.137,0,0,1-1.888.479h-.5a2.61,2.61,0,0,1-1.362-.4A2.394,2.394,0,0,1,42.22-20.7a5.5,5.5,0,0,1-.574-2.3h0V-33.417H39.707v-.517a12.38,12.38,0,0,0,4.222-4.877h.47Zm247.974,4.519V-22.48a5.148,5.148,0,0,0,.211,1.837,1.43,1.43,0,0,0,.623.682,3.489,3.489,0,0,0,1.509.225h0v.577h-7.5v-.577a3.685,3.685,0,0,0,1.518-.208,1.444,1.444,0,0,0,.613-.69,4.934,4.934,0,0,0,.228-1.845h0v-5.666a19.007,19.007,0,0,0-.151-3.1,1.251,1.251,0,0,0-.371-.714,1.086,1.086,0,0,0-.691-.2,3.494,3.494,0,0,0-1.146.241h0l-.236-.577,4.654-1.8Zm65.261,0V-22.48a5.142,5.142,0,0,0,.211,1.837,1.429,1.429,0,0,0,.623.682,3.489,3.489,0,0,0,1.509.225h0v.577h-7.5v-.577a3.685,3.685,0,0,0,1.518-.208,1.444,1.444,0,0,0,.613-.69,4.934,4.934,0,0,0,.228-1.845h0v-6.086a16.432,16.432,0,0,0-.15-2.677,1.245,1.245,0,0,0-.371-.714,1.086,1.086,0,0,0-.691-.2,3.51,3.51,0,0,0-1.147.241h0l-.235-.577,4.654-1.8Zm10.634-.573a6.808,6.808,0,0,1,5.545,2.556,7.719,7.719,0,0,1,1.776,5.014,9.251,9.251,0,0,1-.979,4.028,7,7,0,0,1-2.7,3.073,7.269,7.269,0,0,1-3.825,1.035,6.5,6.5,0,0,1-5.462-2.669,8.127,8.127,0,0,1-1.711-5.047,8.766,8.766,0,0,1,1.039-4.053,6.972,6.972,0,0,1,2.729-2.975A7.162,7.162,0,0,1,368.267-34.865Zm-124.2-7.029v0l.512,7.391h-.512a9.279,9.279,0,0,0-2.928-4.778,7.293,7.293,0,0,0-4.567-1.459,7.618,7.618,0,0,0-4.038,1.1,7.314,7.314,0,0,0-2.837,3.5,15.149,15.149,0,0,0-1.034,5.98,12.345,12.345,0,0,0,.976,5.114,7.163,7.163,0,0,0,2.936,3.318,8.669,8.669,0,0,0,4.477,1.154,7.254,7.254,0,0,0,3.69-.613,12.523,12.523,0,0,0,3.673-2.6h0l.514.321a13.923,13.923,0,0,1-3.938,3.255,9.553,9.553,0,0,1-5.179,1.053,10.232,10.232,0,0,1-8.637-4.008,11.219,11.219,0,0,1-2.283-7.021,12.164,12.164,0,0,1,1.505-5.98,10.689,10.689,0,0,1,4.145-4.224,11.472,11.472,0,0,1,5.766-1.5,10.853,10.853,0,0,1,4.8,1.154,2.671,2.671,0,0,0,.993.353,1.109,1.109,0,0,0,.777-.3,2.47,2.47,0,0,0,.613-1.2h.578Zm-96.658,8.08a3.522,3.522,0,0,0-1.767.51,3.6,3.6,0,0,0-1.437,1.787,8.4,8.4,0,0,0-.547,3.283,12.333,12.333,0,0,0,1.33,5.861,3.934,3.934,0,0,0,3.478,2.346,3.269,3.269,0,0,0,2.656-1.294c.7-.864,1.034-2.625,1.034-4.728a9.953,9.953,0,0,0-1.742-6.212A3.621,3.621,0,0,0,147.409-33.813Zm220.346,0a3.525,3.525,0,0,0-1.768.51,3.6,3.6,0,0,0-1.437,1.787A8.4,8.4,0,0,0,364-28.233a12.334,12.334,0,0,0,1.33,5.861,3.933,3.933,0,0,0,3.478,2.346,3.271,3.271,0,0,0,2.657-1.294c.7-.864,1.034-2.625,1.034-4.728a9.952,9.952,0,0,0-1.742-6.212A3.624,3.624,0,0,0,367.754-33.813Zm-243.809.659a3.243,3.243,0,0,0-1.516.393,9.007,9.007,0,0,0-1.9,1.767h0v5.915a12.39,12.39,0,0,0,.143,2.391,3.073,3.073,0,0,0,1.093,1.67,3.321,3.321,0,0,0,2.193.72,3.116,3.116,0,0,0,2.583-1.276,6.763,6.763,0,0,0,1.292-4.449c0-2.292-.49-4.62-1.468-5.853A3.025,3.025,0,0,0,123.945-33.154Zm154.245-.68a3.373,3.373,0,0,0-2.574,1.274,7.158,7.158,0,0,0-1.492,4.9,7.6,7.6,0,0,0,1.443,4.991,4.149,4.149,0,0,0,3.212,1.732,4,4,0,0,0,2.886-1.465h0v-7.612a5.114,5.114,0,0,0-.591-2,3.372,3.372,0,0,0-1.3-1.363A3.205,3.205,0,0,0,278.191-33.833ZM34.5-28.3a31.167,31.167,0,0,0-3.123,1.375,5.429,5.429,0,0,0-1.81,1.489,2.9,2.9,0,0,0-.544,1.7,2.785,2.785,0,0,0,.688,1.933,2.076,2.076,0,0,0,1.586.769,5.779,5.779,0,0,0,3.2-1.617h0Zm156.925-5.316A3.4,3.4,0,0,0,189-32.581a4.45,4.45,0,0,0-1.25,2.88h6.925a6.218,6.218,0,0,0-.344-1.99,3.192,3.192,0,0,0-1.215-1.412A3.107,3.107,0,0,0,191.428-33.616Zm71.327,0a3.4,3.4,0,0,0-2.426,1.035,4.45,4.45,0,0,0-1.25,2.88H266a6.262,6.262,0,0,0-.344-1.99,3.193,3.193,0,0,0-1.215-1.412A3.106,3.106,0,0,0,262.756-33.616Zm-85.709,0a3.4,3.4,0,0,0-2.426,1.035,4.438,4.438,0,0,0-1.25,2.88H180.3a6.2,6.2,0,0,0-.343-1.99,3.2,3.2,0,0,0-1.216-1.412A3.106,3.106,0,0,0,177.047-33.616Zm-122.4,0a3.4,3.4,0,0,0-2.426,1.035,4.448,4.448,0,0,0-1.248,2.88h6.925a6.2,6.2,0,0,0-.343-1.99A3.2,3.2,0,0,0,56.335-33.1,3.111,3.111,0,0,0,54.643-33.616Zm342.652-4.848a4.359,4.359,0,0,1,4.328,4.379,4.359,4.359,0,0,1-4.328,4.379,4.359,4.359,0,0,1-4.327-4.379A4.358,4.358,0,0,1,397.295-38.464Zm0,.889a3.473,3.473,0,0,0-3.447,3.49,3.473,3.473,0,0,0,3.447,3.49,3.474,3.474,0,0,0,3.45-3.49A3.476,3.476,0,0,0,397.295-37.575Zm-.114,1.1a2.215,2.215,0,0,1,1.31.307,1.1,1.1,0,0,1,.416.96,1.236,1.236,0,0,1-.215.747,1.248,1.248,0,0,1-.656.425.9.9,0,0,1,.431.253,2.166,2.166,0,0,1,.382.592h0l.639,1.3h-1.246l-.553-1.138a1.228,1.228,0,0,0-.338-.467.756.756,0,0,0-.457-.128h-.327v1.732H395.4v-4.582ZM213.794-41.953a2.427,2.427,0,0,1,1.824.886,3.15,3.15,0,0,1,.809,2.2,4.976,4.976,0,0,1-1.347,3.373,6.567,6.567,0,0,1-2.588,1.664h0v-.738a6.951,6.951,0,0,0,2.119-1.788,2.527,2.527,0,0,0,.393-1.428,1.251,1.251,0,0,0-.167-.721.508.508,0,0,0-.393-.235,1.238,1.238,0,0,0-.439.111,2.028,2.028,0,0,1-.651.141,1.479,1.479,0,0,1-1.075-.471,1.6,1.6,0,0,1-.468-1.178,1.6,1.6,0,0,1,.468-1.224A2.14,2.14,0,0,1,213.794-41.953Zm183.264,6.333h-.491v1.178h.491a.781.781,0,0,0,.522-.143.562.562,0,0,0,.164-.453.565.565,0,0,0-.164-.449.812.812,0,0,0-.522-.133ZM290.674-41.808a1.454,1.454,0,0,1,1.083.462,1.556,1.556,0,0,1,.446,1.122,1.583,1.583,0,0,1-.446,1.13,1.44,1.44,0,0,1-1.083.471,1.46,1.46,0,0,1-1.09-.471,1.568,1.568,0,0,1-.454-1.13,1.552,1.552,0,0,1,.446-1.122A1.471,1.471,0,0,1,290.674-41.808Zm65.261,0a1.453,1.453,0,0,1,1.083.462,1.559,1.559,0,0,1,.445,1.122,1.587,1.587,0,0,1-.445,1.13,1.44,1.44,0,0,1-1.083.471,1.461,1.461,0,0,1-1.09-.471,1.569,1.569,0,0,1-.454-1.13,1.552,1.552,0,0,1,.446-1.122A1.47,1.47,0,0,1,355.934-41.808Z" transform="translate(0 42.208)" fill="#333" clip-rule="evenodd"/>
    </clipPath>
    <clipPath id="clip-path-2">
      <rect id="Rectangle_26" data-name="Rectangle 26" width="420.216" height="98.546" fill="#333"/>
    </clipPath>
    <clipPath id="clip-path-3">
      <path id="Path_2" data-name="Path 2" d="M0,36.953H401.623V-43H0Z" transform="translate(0 43)" fill="#333"/>
    </clipPath>
    <clipPath id="clip-path-4">
      <path id="Path_4" data-name="Path 4" d="M0,34.7H401.623V-42.208H0Z" transform="translate(0 42.208)" fill="#333"/>
    </clipPath>
  </defs>
  <g id="Group_7" data-name="Group 7" clip-path="url(#clip-path)">
    <g id="Group_6" data-name="Group 6" transform="translate(-9.297 -10.769)" style="isolation: isolate">
      <g id="Group_5" data-name="Group 5" clip-path="url(#clip-path-2)">
        <g id="Group_3" data-name="Group 3" transform="translate(9.297 9.297)" clip-path="url(#clip-path-3)">
          <path id="Path_1" data-name="Path 1" d="M-5-47.208H415.216v95.5H-5Z" transform="translate(-4.297 39.384)" fill="#333"/>
        </g>
        <g id="Group_4" data-name="Group 4" transform="translate(9.297 10.769)" clip-path="url(#clip-path-4)">
          <path id="Path_3" data-name="Path 3" d="M-5-47.208H416.925v95.5H-5Z" transform="translate(-4.297 37.911)" fill="#333"/>
        </g>
      </g>
    </g>
  </g>
</svg>
