<?xml version="1.0" encoding="utf-8"?>
<!-- Generator: Adobe Illustrator 24.1.3, SVG Export Plug-In . SVG Version: 6.00 Build 0)  -->
<svg version="1.1" id="Layer_1" xmlns="http://www.w3.org/2000/svg" xmlns:xlink="http://www.w3.org/1999/xlink" x="0px" y="0px"
	 viewBox="0 0 335.7 240" style="enable-background:new 0 0 335.7 240;" xml:space="preserve">
<style type="text/css">
	.st0{fill:#EDF1F0;}
	.st1{fill:#CCD6D8;}
	.st2{fill:#D0F341;}
	.st3{fill:#2F3D57;}
	.st4{opacity:0.34;fill:url(#Path_21_1_);enable-background:new    ;}
	.st5{fill:#2D4452;}
	.st6{fill:#F0C514;}
	.st7{fill:#192A33;}
	.st8{opacity:0.34;fill:url(#Path_19_2_);enable-background:new    ;}
	.st9{opacity:0.34;fill:url(#Path_19_3_);enable-background:new    ;}
</style>
<g id="Group_91" transform="translate(-414.304 -727.911)">
	<g id="Group_86" transform="translate(415.655 727.911)">
		<g id="Group_85" transform="translate(0 129.718)">
			<path id="Path_20" class="st0" d="M0.6,53.2v2.3c0,6.6,4.6,11.9,10.2,11.9h313.4c5.6,0,10.2-5.3,10.2-11.9v-2.3H0.6z"/>
			<path id="Rectangle_175" class="st1" d="M140,53.2h54.7l0,0l0,0c0,3.4-2.7,6.1-6.1,6.1h-42.6C142.8,59.3,140,56.6,140,53.2
				C140,53.2,140,53.2,140,53.2L140,53.2L140,53.2z"/>
		</g>
		<rect id="Rectangle_177" x="47.2" y="14.2" class="st2" width="240.4" height="158.6"/>
		<path class="st3" d="M292.7,0.1H42.1c-4.1,0-7.5,3.3-7.5,7.5v168c0,4.1,3.3,7.5,7.5,7.5h250.6c4.1,0,7.5-3.3,7.5-7.5V7.6
			C300.2,3.4,296.8,0.1,292.7,0.1z"/>
		
			<image style="overflow:visible;enable-background:new    ;" width="1457" height="937" id="Rectangle_178" xlink:href="931E0A664492117E.jpg"  transform="matrix(0.165 0 0 0.165 47.185 14.2278)">
		</image>
		
			<linearGradient id="Path_21_1_" gradientUnits="userSpaceOnUse" x1="-75.7517" y1="372.8475" x2="-74.4581" y2="373.1776" gradientTransform="matrix(90.177 0 0 -129.718 7014.251 48476.1367)">
			<stop  offset="0" style="stop-color:#FFFFFF"/>
			<stop  offset="1" style="stop-color:#FFFFFF;stop-opacity:0.4"/>
		</linearGradient>
		<path id="Path_21" class="st4" d="M300.2,183h-50.8L173,0h114.4c7.3-0.5,12.7,3.8,12.7,10.5V183z"/>
	</g>
	<g id="Group_84" transform="translate(414.304 768.688)">
		<path id="Rectangle_171" class="st5" d="M11,16.8h59c6.1,0,11,4.9,11,11v160.5c0,6.1-4.9,11-11,11H11c-6.1,0-11-4.9-11-11V27.7
			C0,21.7,4.9,16.8,11,16.8z"/>
		<rect id="Rectangle_172" x="2.9" y="41.4" class="st6" width="75.3" height="130.3"/>
		<path id="Rectangle_173" class="st7" d="M30.5,28.9h19.9c1.4,0,2.6,1.1,2.6,2.6v0c0,1.4-1.1,2.6-2.6,2.6H30.5
			c-1.4,0-2.6-1.1-2.6-2.6v0C27.9,30.1,29.1,28.9,30.5,28.9z"/>
		
			<linearGradient id="Path_19_2_" gradientUnits="userSpaceOnUse" x1="-74.1907" y1="332.0383" x2="-72.7806" y2="332.0383" gradientTransform="matrix(46.535 0 0 -123.565 3467.7695 41132.1836)">
			<stop  offset="0" style="stop-color:#FFFFFF"/>
			<stop  offset="1" style="stop-color:#FFFFFF;stop-opacity:0.4"/>
		</linearGradient>
		<path id="Path_19" class="st8" d="M67.2,16.8H15.3L79.7,191c0.8-1.7,1.2-3.6,1.2-5.5v-155C80.9,20.2,79.1,16.4,67.2,16.8z"/>
		<circle id="Ellipse_2" class="st7" cx="40.5" cy="185.5" r="7.4"/>
		
			<image style="overflow:visible;enable-background:new    ;" width="342" height="608" id="Rectangle_174" xlink:href="931E0A664492117D.jpg"  transform="matrix(0.2202 0 0 0.2202 2.8964 41.3775)">
		</image>
	</g>
	<g id="Group_84_1_" transform="translate(414.304 768.688)">
		<path id="Rectangle_171_1_" class="st5" d="M11,16.8h59c6.1,0,11,4.9,11,11v160.5c0,6.1-4.9,11-11,11H11c-6.1,0-11-4.9-11-11V27.7
			C0,21.7,4.9,16.8,11,16.8z"/>
		<rect id="Rectangle_172_1_" x="2.9" y="41.4" class="st6" width="75.3" height="130.3"/>
		<path id="Rectangle_173_1_" class="st7" d="M30.5,28.9h19.9c1.4,0,2.6,1.1,2.6,2.6v0c0,1.4-1.1,2.6-2.6,2.6H30.5
			c-1.4,0-2.6-1.1-2.6-2.6v0C27.9,30.1,29.1,28.9,30.5,28.9z"/>
		
			<linearGradient id="Path_19_3_" gradientUnits="userSpaceOnUse" x1="-74.1907" y1="332.0383" x2="-72.7806" y2="332.0383" gradientTransform="matrix(46.535 0 0 -123.565 3467.7695 41132.1836)">
			<stop  offset="0" style="stop-color:#FFFFFF"/>
			<stop  offset="1" style="stop-color:#FFFFFF;stop-opacity:0.4"/>
		</linearGradient>
		<path id="Path_19_1_" class="st9" d="M67.2,16.8H15.3L79.7,191c0.8-1.7,1.2-3.6,1.2-5.5v-155C80.9,20.2,79.1,16.4,67.2,16.8z"/>
		<circle id="Ellipse_2_1_" class="st7" cx="40.5" cy="185.5" r="7.4"/>
		
			<image style="overflow:visible;enable-background:new    ;" width="342" height="608" id="Rectangle_174_1_" xlink:href="931E0A664492117A.jpg"  transform="matrix(0.2202 0 0 0.2202 2.8964 41.3775)">
		</image>
	</g>
</g>
</svg>
