<svg xmlns="http://www.w3.org/2000/svg" xmlns:xlink="http://www.w3.org/1999/xlink" viewBox="0 0 186.92 244.64"><defs><style>.cls-1{fill:#f9f3ef;}.cls-2{fill:#ffa300;}.cls-3{opacity:0.2;}.cls-4{fill:#4d4d4d;}.cls-5{fill:#272f38;}.cls-6{fill:#ddd9d7;}.cls-7{fill:url(#linear-gradient);}.cls-8{fill:#fff;}.cls-9{fill:#99badd;}.cls-10{fill:#6bac45;}.cls-11{fill:#ebeb66;}.cls-12{fill:#ef5b5b;}.cls-13{fill:#e87c7c;}.cls-14{fill:#d85555;}</style><linearGradient id="linear-gradient" x1="61.2" y1="82.5" x2="61.2" y2="79.61" gradientUnits="userSpaceOnUse"><stop offset="0" stop-color="#ddd9d7"/><stop offset="1" stop-color="#f9f3ef"/></linearGradient></defs><g id="Layer_2" data-name="Layer 2"><g id="Layer_1-2" data-name="Layer 1"><g id="tail"><path class="cls-1" d="M165,192a4.6,4.6,0,0,1-3.07,5.85c-43.92,13-56.81-15.09-98.35-24.73-3.18-.74-3.22-3.18-2.95-5.15h0c.28-2,1.54-4.71,4.55-3.88,39.35,10.88,53.09,37.14,94.13,24.94a4.6,4.6,0,0,1,5.69,3Z"/><path class="cls-2" d="M168.67,190.77h0Z"/><path class="cls-2" d="M159.35,189.07c-1.44.43-2.84.81-4.21,1.14.94,2.93,1.84,5.85,2.84,8.77l.14,0,1.88-.49.61-.17,1.39-.4a4.6,4.6,0,0,0-2.65-8.81Z"/><path class="cls-2" d="M132.13,200.6a57.52,57.52,0,0,0,9,.64c-.58-3-1.18-6-1.78-9a54.6,54.6,0,0,1-8.44-.65C131.26,194.59,131.72,197.59,132.13,200.6Z"/><path class="cls-2" d="M107.11,191.62c1.64.84,3.26,1.65,4.89,2.42.18-2.78.33-5.57.56-8.36-1.52-.71-3-1.45-4.55-2.22C107.74,186.18,107.43,188.9,107.11,191.62Z"/></g><g class="cls-3"><path class="cls-4" d="M101.53,180c-5.8-3.11-11.85-6.44-18.64-9.48H70.76l.33,4.61c11.46,3.52,20.67,8.34,29.25,12.89C100.68,185.83,100.91,182,101.53,180Z"/></g><g id="left_arm" data-name="left arm"><path class="cls-1" d="M166.76,65c.74.94.51-.55,0,0,2.84,3.63,2.21,7.77-2.22,12.09-20.57,20.07-38.34,28.77-67.15,33-6.21.91-9.84-3.71-10.79-8.79-.26-1.4-.25-.46,0,0-.95-5.08,2.16-11.78,7.37-12,24.14-.77,43.09-8.7,61-24.13C158.83,61.91,163.92,61.37,166.76,65Z"/><path class="cls-2" d="M106.6,108.51q6.32-1.28,12-3c-1.81-5.73-4.15-12.69-6-18.43a99.12,99.12,0,0,1-10.34,1.67C103.56,95,105.18,102.45,106.6,108.51Z"/><path class="cls-2" d="M135.42,98.84a97.55,97.55,0,0,0,10.63-6.33c-2.44-4.65-5.43-10.46-8.06-15.14a89.18,89.18,0,0,1-10.11,5C130.29,87.5,133.13,93.74,135.42,98.84Z"/><path class="cls-1" d="M160.32,58a17.18,17.18,0,0,0,4-2.51c4.75-3.65,10.9-.31,12,6.58,1.33,8.62-1.44,8.76-8.11,12.73-5.71,2.74-7.59-1.88-12.08-8.81C154.89,64,152.84,61.63,160.32,58Z"/><path class="cls-1" d="M157.88,54.26a16.28,16.28,0,0,1,3,6,3.32,3.32,0,0,1-2.15,4h0c-1.65.66-3.36.13-3.89-1.54a19.89,19.89,0,0,0-2.64-5.57c-1.13-1.43-1-3.13.76-4h0A3.92,3.92,0,0,1,157.88,54.26Z"/><path class="cls-1" d="M173.93,50.38a38.31,38.31,0,0,0-3.6,6.93,3,3,0,0,1-4.16,1.87c-.36-.16,0,.08,0,0a3.7,3.7,0,0,1-1.71-4.75,34.78,34.78,0,0,1,3.88-7.23c1.38-1.72,3.15-2.63,4.95-1.56h0C175.1,46.71,175.12,48.59,173.93,50.38Z"/><path class="cls-1" d="M182.67,56.28A53.06,53.06,0,0,0,175,61.1c-1.76,1.3-3.68,1.32-4.82-.45h0c-1.14-1.78-.49-3.46,1.21-4.88a44.09,44.09,0,0,1,7.84-5,3.52,3.52,0,0,1,4.7,1.18h0A3,3,0,0,1,182.67,56.28Z"/><path class="cls-1" d="M184.43,65.43a47.1,47.1,0,0,0-8.12,2.92A3,3,0,0,1,172,66.81c-.14-.34-.06,0,0,0a3.38,3.38,0,0,1,1.87-4.45,40,40,0,0,1,8.59-3.13c2.15-.34,3.76.47,4.32,2.31h0A2.89,2.89,0,0,1,184.43,65.43Z"/><path class="cls-2" d="M163.64,59.77a4.11,4.11,0,0,1,1.09-.16c3.33.63,5.08.64,7.27,4,1.71,2.61.07,6.88-4.81,8.6-4.53.11-5.88-1.52-8.61-5.73C157,62.55,160.21,60.1,163.64,59.77Z"/></g><path class="cls-1" d="M26,178.19c1.17-.6.52.77,0,0Z"/><path class="cls-1" d="M38.36,99.05a4.08,4.08,0,0,0-3.65-1.77c-1.24.08-2.47.17-3.7.27-.29.41-.58.83-.86,1.25s-.56.86-.83,1.3c-.37.6-.74,1.22-1.1,1.85-.28.47-.54,1-.81,1.45s-.5.94-.74,1.42c-.32.64-.64,1.3-1,2l-.36.81c-.25.54-.49,1.1-.72,1.66s-.5,1.22-.74,1.84-.56,1.48-.83,2.24q-.81,2.28-1.52,4.72c-5.14-2-11-4.1-16-6.32.25-.51.51-1,.77-1.52s.55-1,.83-1.53.57-1,.87-1.52c.54-.92,1.1-1.84,1.69-2.76q.6-.93,1.23-1.86c.35-.52.71-1,1.07-1.55l1.12-1.56Q16.2,95.26,20,91c5.25-6,9.84-3.53,14-.3-.93-.79.41-.51.12.1a12,12,0,0,1,1.38,1.28A9.79,9.79,0,0,1,38.36,99.05Z"/><path class="cls-1" d="M26,178.19c1.17-.6.52.77,0,0Z"/><path class="cls-1" d="M38.36,99.05a4.08,4.08,0,0,0-3.65-1.77c-1.24.08-2.47.17-3.7.27-.29.41-.58.83-.86,1.25s-.56.86-.83,1.3c-.37.6-.74,1.22-1.1,1.85-.28.47-.54,1-.81,1.45s-.5.94-.74,1.42c-.32.64-.64,1.3-1,2l-.36.81c-.25.54-.49,1.1-.72,1.66s-.5,1.22-.74,1.84-.56,1.48-.83,2.24q-.81,2.28-1.52,4.72c-5.14-2-11-4.1-16-6.32.25-.51.51-1,.77-1.52s.55-1,.83-1.53.57-1,.87-1.52c.54-.92,1.1-1.84,1.69-2.76q.6-.93,1.23-1.86c.35-.52.71-1,1.07-1.55l1.12-1.56Q16.2,95.26,20,91c5.25-6,9.84-3.53,14-.3-.93-.79.41-.51.12.1a12,12,0,0,1,1.38,1.28A9.79,9.79,0,0,1,38.36,99.05Z"/><path class="cls-2" d="M25.36,107.59c-.25.54-.49,1.1-.72,1.66s-.5,1.22-.74,1.84-.56,1.48-.83,2.24q-.81,2.28-1.52,4.72c-5.14-2-11-4.1-16-6.32.25-.51.51-1,.77-1.52s.55-1,.83-1.53.57-1,.87-1.52c.54-.92,1.1-1.84,1.69-2.76q.6-.93,1.23-1.86c.35-.52.71-1,1.07-1.55l1.12-1.56C16.78,102.28,21.22,104.94,25.36,107.59Z"/><path class="cls-2" d="M27.78,112.49l-.37.44c-.22.27-.45.53-.67.79l.65-.78Q27.57,112.72,27.78,112.49Z"/><path class="cls-2" d="M17.44,133.08a29.6,29.6,0,0,0-.27,5,28.59,28.59,0,0,1,.26-5Z"/><path class="cls-2" d="M17.28,140c0,.56.12,1.12.2,1.68v0h0C17.39,141.11,17.32,140.54,17.28,140Z"/><path class="cls-2" d="M18,144.7h0q-.21-.91-.36-1.8C17.78,143.5,17.9,144.1,18,144.7Z"/><path class="cls-1" d="M23.07,113.33q-.81,2.28-1.52,4.72-.9,3.09-1.62,6.44c-.48,2.13-.87,4.37-1.23,6.65,2.66.1,5.31.19,8,.26a4.07,4.07,0,0,1,3.95,4.33c-.07,1.07-.12,2.17-.16,3.28s-.06,2.31-.06,3.41a4.06,4.06,0,0,1-4.18,4.05q-3.91-.1-7.81-.25a54.08,54.08,0,0,0,4.66,11.32q3.32.47,6.64.85a4.08,4.08,0,0,1,3.35,2.66,24.4,24.4,0,0,0,3.39,6.35,4.08,4.08,0,0,1-3.77,6.43l-2.8-.31A7.14,7.14,0,0,1,26,178.19c1.17-.6.52.77,0,0a9,9,0,0,1-3.59,1.16c7.58,13.54,22.75,14.82,38.81,14.82,18,0,33.93-1.59,41-20.23,2.53-6.65,3.77-15.29,3.28-26.47,0-.43,0-.86-.07-1.29q-4.5.16-9,.29a4.06,4.06,0,0,1-4.19-4c0-1.1,0-2.24-.07-3.42s-.1-2.19-.17-3.26A4.07,4.07,0,0,1,96,131.4c2.64-.07,5.27-.16,7.91-.25a97.34,97.34,0,0,0-5.26-20.08c.28.74.56,1.49.83,2.25q-4.45-.43-8.93-.75A4,4,0,0,1,87,110a53.2,53.2,0,0,0-3-6.74,4.06,4.06,0,0,1,3.88-6l3.65.26c-7.75-11-18.23-16.83-30.27-16.83-9.84,0-18.66,3.9-25.77,11.36a9.79,9.79,0,0,1,2.89,7,4,4,0,0,1,.23,4.19,51.82,51.82,0,0,0-3,6.74,4.06,4.06,0,0,1-3.51,2.6c-1.55.11-3.11.24-4.65.36C27.4,112.94,24.51,113.19,23.07,113.33Zm79.79,58.84Q96,173.22,89.2,173.92a4.07,4.07,0,0,1-3.61-6.59,24.35,24.35,0,0,0,3.74-6.39,4.05,4.05,0,0,1,3.3-2.51q6.45-.74,12.88-1.79A59.15,59.15,0,0,1,102.86,172.17Zm1-41h0c.09.54.18,1.07.26,1.61C104.07,132.22,104,131.68,103.9,131.15Z"/><path class="cls-1" d="M26,178.19c1.17-.6.52.77,0,0Z"/><path class="cls-1" d="M30.62,135.73c-.07,1.07-.12,2.17-.16,3.28s-.06,2.31-.06,3.41a4.06,4.06,0,0,1-4.18,4.05q-3.91-.1-7.81-.25c-.14-.51-.26-1-.38-1.52s-.26-1.21-.36-1.8c-.06-.35-.12-.7-.17-1.06a.52.52,0,0,0,0-.11v0h0s0,0,0,0h0c0-.44.07-.89.11-1.32.05-.64.11-1.27.17-1.89l.21-2c.06-.55.13-1.1.2-1.64.15-1.25.33-2.49.52-3.7h0c2.66.1,5.31.19,8,.26A4.07,4.07,0,0,1,30.62,135.73Z"/><path class="cls-1" d="M32.68,173.83l-2.8-.31c.58-2.36,0-5.18-2-8.05a92.54,92.54,0,0,1-4.84-7.93q3.32.47,6.64.85a4.08,4.08,0,0,1,3.35,2.66,24.4,24.4,0,0,0,3.39,6.35A4.08,4.08,0,0,1,32.68,173.83Z"/><path class="cls-1" d="M35.47,92.06a9.79,9.79,0,0,1,2.89,7,4.08,4.08,0,0,0-3.65-1.77c-1.24.08-2.47.17-3.7.27-.58.82-1.14,1.67-1.69,2.55A48.41,48.41,0,0,1,35.47,92.06Z"/><path class="cls-1" d="M87,110a53.2,53.2,0,0,0-3-6.74,4.06,4.06,0,0,1,3.88-6l3.65.26c.35.5.69,1,1,1.53a2.22,2.22,0,0,0,.15.23,59.64,59.64,0,0,1,4.12,7.53q1,2,1.81,4.25c.28.74.56,1.49.83,2.25q-4.45-.43-8.93-.75A4,4,0,0,1,87,110Z"/><path class="cls-1" d="M105.51,156.64a59.15,59.15,0,0,1-2.65,15.53Q96,173.22,89.2,173.92a4.07,4.07,0,0,1-3.61-6.59,24.35,24.35,0,0,0,3.74-6.39,4.05,4.05,0,0,1,3.3-2.51Q99.08,157.7,105.51,156.64Z"/><path class="cls-1" d="M96,131.4c2.64-.07,5.28-.16,7.92-.25.19,1.17.37,2.37.53,3.58q.5,3.65.78,7.52c.1,1.29.18,2.6.25,3.93q-4.5.16-9,.29a4.06,4.06,0,0,1-4.19-4c0-1.1,0-2.24-.07-3.42s-.1-2.19-.17-3.26A4.07,4.07,0,0,1,96,131.4Z"/><path class="cls-2" d="M32.68,173.83l-2.8-.31c.58-2.36,0-5.18-2-8.05a92.54,92.54,0,0,1-4.84-7.93q3.32.47,6.64.85a4.08,4.08,0,0,1,3.35,2.66,24.4,24.4,0,0,0,3.39,6.35A4.08,4.08,0,0,1,32.68,173.83Z"/><path class="cls-2" d="M105.51,156.64a59.15,59.15,0,0,1-2.65,15.53Q96,173.22,89.2,173.92a4.07,4.07,0,0,1-3.61-6.59,24.35,24.35,0,0,0,3.74-6.39,4.05,4.05,0,0,1,3.3-2.51Q99.08,157.7,105.51,156.64Z"/><path class="cls-2" d="M105.46,146.18q-4.5.16-9,.29a4.06,4.06,0,0,1-4.19-4c0-1.1,0-2.24-.07-3.42s-.1-2.19-.17-3.26A4.07,4.07,0,0,1,96,131.4c2.64-.07,5.28-.16,7.92-.25.19,1.17.37,2.37.53,3.58q.48,3.65.78,7.52C105.31,143.54,105.39,144.85,105.46,146.18Z"/><path class="cls-2" d="M30.62,135.73c-.07,1.07-.12,2.17-.16,3.28s-.06,2.31-.06,3.41a4.06,4.06,0,0,1-4.18,4.05q-3.91-.1-7.81-.25c-.14-.51-.26-1-.38-1.52s-.26-1.21-.36-1.8c-.06-.35-.12-.7-.17-1.06a.52.52,0,0,0,0-.11v-.08c0-.44.07-.89.11-1.32.05-.64.11-1.27.17-1.89l.21-2c.06-.55.13-1.1.2-1.64.15-1.25.33-2.49.52-3.7h0c2.66.1,5.31.19,8,.26A4.07,4.07,0,0,1,30.62,135.73Z"/><path class="cls-2" d="M99.46,113.32q-4.45-.43-8.93-.75A4,4,0,0,1,87,110a53.2,53.2,0,0,0-3-6.74,4.06,4.06,0,0,1,3.88-6l3.65.26c.35.5.69,1,1,1.53a2.22,2.22,0,0,0,.15.23,62.28,62.28,0,0,1,4.12,7.53q.95,2,1.81,4.25C98.91,111.81,99.19,112.56,99.46,113.32Z"/><path class="cls-2" d="M38.59,103.24a51.82,51.82,0,0,0-3,6.74,4.06,4.06,0,0,1-3.51,2.6l-4.64.35.37-.44q-.21.23-.39.45-2.16.18-4.32.39c.27-.76.54-1.51.83-2.24s.49-1.24.74-1.84.47-1.12.72-1.66l.36-.81c.31-.66.63-1.32,1-2,.24-.48.49-.95.74-1.42s.53-1,.81-1.45c.36-.63.73-1.25,1.1-1.85.55-.88,1.11-1.73,1.69-2.55,1.23-.1,2.46-.19,3.7-.27a4.08,4.08,0,0,1,3.65,1.77A4,4,0,0,1,38.59,103.24Z"/><g id="head"><path class="cls-1" d="M99.93,24.27c-5.39,6.12-10.58,2.78-16.22-2.19S74.1,12.37,79.49,6.25s22.76-7,23.7-5.82C106.16,3.4,105.32,18.15,99.93,24.27Z"/><path class="cls-2" d="M99.93,24.27c-5.39,6.12-2.83,8.48-16.22-2.19-5.89-4.69-3.31-5.49,2-11.72,3.91-4.61,11-8.44,17.53-9.93C106.16,3.4,105.32,18.15,99.93,24.27Z"/><path class="cls-1" d="M22.75,24.27c5.39,6.12,10.58,2.78,16.22-2.19s9.61-9.71,4.22-15.83S20.43-.71,19.49.43C16.52,3.4,17.36,18.15,22.75,24.27Z"/><path class="cls-2" d="M22.75,24.27c5.39,6.12,10.58,2.78,16.22-2.19S42.28,16.59,37,10.36C33.11,5.75,26,1.92,19.49.43,16.52,3.4,17.36,18.15,22.75,24.27Z"/><path class="cls-1" d="M99.39,29.14c-1-21.95-17.24-28-38-28s-37.1,6.1-38.05,28.05c-8.17,7.31-11.68,19.33-9,29.14C17.78,71,28.75,91.79,44.07,92.79h0c2.18,0,32.27,0,34.46,0h0c14.88-.81,26-21.3,29.77-34.51C111.22,48.38,107.56,36.45,99.39,29.14Z"/><path class="cls-2" d="M107.86,42.29l-6.7-2c-.15.95-.31,1.91-.51,2.88a70.56,70.56,0,0,1-6.8,18.41c-1.51,2.87-.64,6,1.77,6.85,3.09,1.07,4.61,1.61,7.59,2.68.35-.66.68-1.33,1-2a73,73,0,0,0,3.67-9.23c.16-.54.34-1.07.49-1.61A27.57,27.57,0,0,0,107.86,42.29Z"/><path class="cls-2" d="M14.82,42.29l6.7-2c.15.95.31,1.91.51,2.88a70.56,70.56,0,0,0,6.8,18.41c1.51,2.87.64,6-1.77,6.85-3.09,1.07-4.61,1.61-7.59,2.68-.35-.66-.68-1.33-1-2a73,73,0,0,1-3.67-9.23c-.16-.54-.34-1.07-.49-1.61A27.57,27.57,0,0,1,14.82,42.29Z"/><polygon class="cls-5" points="67.48 20.14 81.72 23.43 81.85 21.97 67.71 17.59 67.48 20.14"/><path class="cls-6" d="M70.65,51.26c0,5.15-6.11,10.76-9.31,10.76S52,56.41,52,51.26s4.17-4.57,9.32-4.57S70.65,46.12,70.65,51.26Z"/><path class="cls-7" d="M72.17,79.61a22.25,22.25,0,0,1-21.93,0"/><ellipse class="cls-8" cx="72.19" cy="36.31" rx="8.24" ry="10.09"/><circle class="cls-5" cx="72.03" cy="39.83" r="4.45"/><circle class="cls-8" cx="73.68" cy="37.21" r="0.98"/><polygon class="cls-5" points="55.2 20.14 40.96 23.43 40.83 21.97 54.97 17.59 55.2 20.14"/><ellipse class="cls-8" cx="50.49" cy="36.31" rx="8.24" ry="10.09"/><circle class="cls-5" cx="50.65" cy="39.83" r="4.45"/><circle class="cls-8" cx="52.3" cy="37.21" r="0.98"/><path class="cls-5" d="M83.28,57a.19.19,0,0,1-.16-.09.18.18,0,0,1,.07-.25,85.68,85.68,0,0,1,31.71-10.5.17.17,0,0,1,.2.15.18.18,0,0,1-.16.2A85.2,85.2,0,0,0,83.37,57Z"/><path class="cls-5" d="M85,59.3a.18.18,0,0,1-.17-.11A.19.19,0,0,1,85,59a85.73,85.73,0,0,1,33-5.41.17.17,0,0,1,.17.18.18.18,0,0,1-.18.18h0a85.25,85.25,0,0,0-32.83,5.39Z"/><path class="cls-5" d="M117.38,64.34h0a85.27,85.27,0,0,0-33.21-1.89.18.18,0,1,1,0-.35A85.61,85.61,0,0,1,117.43,64a.19.19,0,0,1,.13.22A.18.18,0,0,1,117.38,64.34Z"/><path class="cls-5" d="M39.4,57l-.09,0A85.19,85.19,0,0,0,7.73,46.49a.18.18,0,0,1-.15-.2.17.17,0,0,1,.2-.15,85.74,85.74,0,0,1,31.71,10.5.2.2,0,0,1,.07.25A.19.19,0,0,1,39.4,57Z"/><path class="cls-5" d="M37.67,59.3H37.6A85.2,85.2,0,0,0,4.78,53.9a.19.19,0,0,1-.18-.18.17.17,0,0,1,.17-.18,85.64,85.64,0,0,1,33,5.41.2.2,0,0,1,.11.24A.18.18,0,0,1,37.67,59.3Z"/><path class="cls-5" d="M5.3,64.34a.18.18,0,0,1-.18-.13A.18.18,0,0,1,5.25,64,85.6,85.6,0,0,1,38.6,62.1a.17.17,0,0,1,.15.2.16.16,0,0,1-.2.15A85.27,85.27,0,0,0,5.34,64.34Z"/></g><path class="cls-9" d="M21.3,177.1c.26.56.52,1.11.8,1.64,3.77,16.29,6.11,31.11,10.39,59H49.25c1.18-16.44,3.25-35.8,4.41-38.41,1-2.23,3.88-3.92,7.68-4.63,3.79.71,6.69,2.4,7.68,4.63,1.16,2.61,3.23,22,4.41,38.41H90.19c3.79-25.71,5.27-36.22,10.7-60.47-7.25,3.3-22.23,5.56-39.55,5.56C43.63,182.88,28.36,180.51,21.3,177.1Z"/><path class="cls-2" d="M119.1,235.06c0,7.23-10.35,9.58-23.12,9.58s-23.11-2.35-23.11-9.58C96,248.05,101,229.38,114.2,227,117.27,229.23,119.1,232,119.1,235.06Z"/><path class="cls-1" d="M114.2,227c-4.45.8-8.12,3.57-11.68,6.2-3.72,2.76-7.61,5.45-12.29,6.19a20.41,20.41,0,0,1-8.23-.51,31.84,31.84,0,0,1-5.1-1.8c-.93-.41-1.85-.86-2.76-1.34-.32-.16-1.16-.46-1.27-.76a2.41,2.41,0,0,1,.07-1c.86-6.26,8.23-9.55,13.59-10.92,8.11-2.06,17.65-1.58,25.14,2.34A10.58,10.58,0,0,1,114.2,227Z"/><path class="cls-5" d="M111.81,242.75a8.6,8.6,0,0,0-.29-2.31,8.49,8.49,0,0,0-.84-2.06,7.66,7.66,0,0,0-3.25-3.09,4.26,4.26,0,0,1,2.38.72,5.56,5.56,0,0,1,1.74,1.87,6,6,0,0,1,.74,2.43A4.35,4.35,0,0,1,111.81,242.75Z"/><path class="cls-5" d="M117.29,239.61a13,13,0,0,0-.93-5,9.9,9.9,0,0,0-1.31-2.15c-.53-.68-1.14-1.3-1.78-2a7.07,7.07,0,0,1,4,3.71A6.84,6.84,0,0,1,117.29,239.61Z"/><path class="cls-2" d="M3.58,235.06c0,7.23,10.35,9.58,23.12,9.58s23.11-2.35,23.11-9.58c-23.11,13-28.14-5.68-41.33-8.05C5.41,229.23,3.58,232,3.58,235.06Z"/><path class="cls-1" d="M8.48,227c4.45.8,8.12,3.57,11.67,6.2,3.73,2.76,7.62,5.45,12.3,6.19a20.41,20.41,0,0,0,8.23-.51,31.84,31.84,0,0,0,5.1-1.8c.93-.41,1.85-.86,2.76-1.34.31-.16,1.16-.46,1.27-.76a2.41,2.41,0,0,0-.07-1c-.86-6.26-8.23-9.55-13.59-10.92C28,221.05,18.5,221.53,11,225.45A10.58,10.58,0,0,0,8.48,227Z"/><path class="cls-5" d="M10.87,242.75a8.6,8.6,0,0,1,.29-2.31,8.49,8.49,0,0,1,.84-2.06,7.6,7.6,0,0,1,3.25-3.09,4.26,4.26,0,0,0-2.38.72,5.56,5.56,0,0,0-1.74,1.87,6,6,0,0,0-.74,2.43A4.35,4.35,0,0,0,10.87,242.75Z"/><path class="cls-5" d="M5.39,239.61a13,13,0,0,1,.93-5,9.9,9.9,0,0,1,1.31-2.15c.53-.68,1.14-1.3,1.78-2a7.07,7.07,0,0,0-4,3.71A6.84,6.84,0,0,0,5.39,239.61Z"/><g class="cls-3"><path class="cls-4" d="M89.32,85.74a4.39,4.39,0,1,0-8.71,1.14,364.58,364.58,0,0,1,1,86c-.29,2.71-.6,5.42-1,8.13a4.45,4.45,0,0,0,3.75,5,4.4,4.4,0,0,0,5-3.86c.4-3.08.75-6.17,1.08-9.26A373.76,373.76,0,0,0,89.32,85.74Z"/></g><path class="cls-10" d="M89.76,85.74a4.39,4.39,0,1,0-8.71,1.14,364.58,364.58,0,0,1,1,86h8.83A373.21,373.21,0,0,0,89.76,85.74Z"/><path class="cls-11" d="M84.8,186a4.41,4.41,0,0,0,5-3.86c.4-3.08.75-6.17,1.07-9.26H82c-.29,2.71-.6,5.42-1,8.13A4.45,4.45,0,0,0,84.8,186Z"/><g class="cls-3"><path class="cls-4" d="M33.36,85.74a4.41,4.41,0,0,1,5-3.86,4.46,4.46,0,0,1,3.75,5,364.58,364.58,0,0,0-1,86c.29,2.71.6,5.42,1,8.13a4.45,4.45,0,0,1-3.75,5,4.4,4.4,0,0,1-5-3.86c-.4-3.08-.75-6.17-1.08-9.26A373.76,373.76,0,0,1,33.36,85.74Z"/></g><path class="cls-10" d="M32.92,85.74a4.39,4.39,0,1,1,8.71,1.14,364.58,364.58,0,0,0-1,86H31.85A373.21,373.21,0,0,1,32.92,85.74Z"/><path class="cls-11" d="M37.88,186a4.41,4.41,0,0,1-5-3.86c-.4-3.08-.75-6.17-1.07-9.26h8.83c.29,2.71.6,5.42,1,8.13A4.45,4.45,0,0,1,37.88,186Z"/><g id="bow_tie" data-name="bow tie"><g class="cls-3"><path class="cls-4" d="M87.34,81.38c-6.16,0-15.44,2.94-19.91,7.54a5.86,5.86,0,0,0-5.09-3.1h-2a5.86,5.86,0,0,0-5.09,3.1c-4.47-4.6-13.75-7.54-19.91-7.54-8.36,0-4.56,6.21-4.56,13.88s-3.8,13.87,4.56,13.87c6,0,14.88-3.59,19.49-8.44a5.92,5.92,0,0,0,5.51,4h2a5.93,5.93,0,0,0,5.51-4c4.61,4.85,13.51,8.44,19.49,8.44,8.36,0,4.56-6.21,4.56-13.87S95.7,81.38,87.34,81.38Z"/></g><path class="cls-12" d="M93.7,94c0,7.67,4,13.88-4.83,13.88S65,100.82,65,93.16,80,80.1,88.87,80.1,93.7,86.31,93.7,94Z"/><path class="cls-12" d="M29,94c0,7.67-4,13.88,4.82,13.88s23.84-7,23.84-14.69S42.66,80.1,33.8,80.1,29,86.31,29,94Z"/><rect class="cls-13" x="54" y="84.54" width="14.68" height="18.87" rx="6.28"/><path class="cls-14" d="M91.81,104.91c0,1-4,1.09-8.91-.07a36.5,36.5,0,0,1-10-4.67s8.37,1.37,14,1.84C91.84,102.43,91.85,103.88,91.81,104.91Z"/><path class="cls-14" d="M30.58,104.91c0,1,4,1.09,8.92-.07a36.37,36.37,0,0,0,10-4.67s-8.37,1.37-14,1.84C30.56,102.43,30.54,103.88,30.58,104.91Z"/></g><g class="cls-3"><path class="cls-4" d="M39.61,178.88Z"/></g><g class="cls-3"><path class="cls-4" d="M45.88,190l0,0Z"/></g><g class="cls-3"><path class="cls-4" d="M39.37,178.76a4,4,0,0,0-.69-.41,3.32,3.32,0,0,0,.62-4.64,15.7,15.7,0,0,0-5.06-4,4.14,4.14,0,0,0-3.07-.23l-.24-.08a34.46,34.46,0,0,0-2.28-4.74c-1.58-2.9-3.47-5.38-4.84-7.93a54.08,54.08,0,0,1-4.66-11.32c-.14-.51-.26-1-.38-1.52s-.26-1.21-.36-1.8c-.06-.35-.12-.7-.17-1.06a.52.52,0,0,0,0-.11v0h0c-.08-.57-.15-1.14-.19-1.71s-.11-1.22-.14-1.82l-.12,1.12c-.06.62-.12,1.25-.17,1.89,0,.43-.08.88-.11,1.32v.08a.52.52,0,0,1,0,.11c.05.36.11.71.17,1.06q.15.89.36,1.8c.12.5.24,1,.38,1.52a54.08,54.08,0,0,0,4.66,11.32,92.54,92.54,0,0,0,4.84,7.93c1.94,2.87,2.55,5.69,2,8.05A7.14,7.14,0,0,1,26,178.19c1.17-.6.52.77,0,0a9,9,0,0,1-3.59,1.16,24.8,24.8,0,0,0,10.15,10l.24-.07.19.29a35.2,35.2,0,0,0,8.57,3,4.51,4.51,0,0,0-.31-1.06A42.48,42.48,0,0,0,38,185.72c1,1,2.07,2,2.78,2.82,1.35,1.56,3.09,2,4.54.61s1.06-3.26-.19-5A33.58,33.58,0,0,0,39.37,178.76Z"/></g><g class="cls-3"><path class="cls-4" d="M45.88,190Z"/></g><g class="cls-3"><path class="cls-4" d="M40.62,196.84Z"/></g><g class="cls-3"><path class="cls-4" d="M34,199.2Z"/></g><path class="cls-1" d="M34.31,175.42a16.7,16.7,0,0,0,2.32,3.84c3.4,4.65,0,10.47-6.58,11.33-8.3,1.08-8.37-1.58-12-8.06-2.5-5.54,2-7.24,8.73-11.38C28.73,170.07,31,168.17,34.31,175.42Z"/><path class="cls-1" d="M33.5,170.52a15.7,15.7,0,0,1,5.06,4,3.18,3.18,0,0,1-.28,4.34h0c-1.18,1.24-2.88,1.46-4,.21a19.07,19.07,0,0,0-4.53-3.79c-1.56-.8-2.14-2.33-.95-3.82h0A3.76,3.76,0,0,1,33.5,170.52Z"/><path class="cls-1" d="M40,189.38a36.84,36.84,0,0,0-5.51-5.09,2.86,2.86,0,0,1-.67-4.32c.24-.29-.07,0,0,0a3.52,3.52,0,0,1,4.82-.37A33.19,33.19,0,0,1,44.34,185c1.25,1.71,1.64,3.58.19,5h0C43.08,191.39,41.34,190.94,40,189.38Z"/><path class="cls-1" d="M35.13,195.5a50.62,50.62,0,0,0-4.45-7.44c-1.2-1.71-1.17-3.55.55-4.6h0c1.73-1.06,3.32-.4,4.65,1.27a42.2,42.2,0,0,1,4.65,7.63,3.39,3.39,0,0,1-1.23,4.48h0A2.86,2.86,0,0,1,35.13,195.5Z"/><path class="cls-1" d="M28.49,197.84a45.53,45.53,0,0,0-4.43-7,2.92,2.92,0,0,1,.53-4.38c.3-.21,0-.05,0,0a3.25,3.25,0,0,1,4.56.82,38.19,38.19,0,0,1,4.73,7.39c.77,1.93.34,3.61-1.26,4.52h0A2.77,2.77,0,0,1,28.49,197.84Z"/><path class="cls-9" d="M42.49,181.92c-10.34,5.55-10.64,9.74-17.44,10.72l4,17.2,18.72-4.5,2.91-20.11Z"/><path class="cls-1" d="M29.88,173.52c-1.41,1.46-1.8,3.61-3.86,4.67a9,9,0,0,1-3.59,1.16c-2.48.14-4.51-1.64-7.72-6.23-15.9-22.71-18.85-41.64-9.13-61.39,4.94,2.22,10.83,4.3,16,6.32q-.9,3.09-1.62,6.44a31.46,31.46,0,0,0-2.5,8.59c-5.14-.44-12.38-.89-17.34-1.42C1.76,133,3,140.83,1.28,145.15c4.6-.23,11.19-.38,16-.44H18c.12.5.24,1,.38,1.52a54.08,54.08,0,0,0,4.66,11.32c1.37,2.55,3.26,5,4.84,7.93C30.42,170.1,31.24,172.12,29.88,173.52Z"/><path class="cls-2" d="M18,144.7h-.76c-4.8.06-11.39.21-16,.44A48.23,48.23,0,0,1,.09,131.66c5,.53,12.2,1,17.34,1.42a28.59,28.59,0,0,0-.26,5c0,.63.06,1.26.11,1.9s.11,1.14.19,1.71h0v0a.52.52,0,0,1,0,.11c.05.36.11.71.17,1.06Q17.82,143.79,18,144.7Z"/><path class="cls-5" d="M43.75,65.1A97.52,97.52,0,0,0,79,65.1s-9,11-17.62,11S43.75,65.1,43.75,65.1Z"/><path class="cls-13" d="M61.37,76.08c3.09,0,6.22-1.4,9-3.21a18.22,18.22,0,0,0-9-2,18.22,18.22,0,0,0-9,2C55.15,74.68,58.29,76.08,61.37,76.08Z"/></g></g></svg>