<svg id="Layer_1" data-name="Layer 1" xmlns="http://www.w3.org/2000/svg" xmlns:xlink="http://www.w3.org/1999/xlink" viewBox="0 0 176 224"><defs><style>.cls-1{fill:url(#linear-gradient);}.cls-2{fill:#f9f3ef;}.cls-3{fill:#ffa300;}.cls-4{opacity:0.2;}.cls-5{fill:#4d4d4d;}.cls-6{fill:#272f38;}.cls-7{fill:#ddd9d7;}.cls-8{fill:url(#linear-gradient-2);}.cls-9{fill:#fff;}.cls-10{fill:#99badd;}.cls-11{fill:#6bac45;}.cls-12{fill:#ebeb66;}.cls-13{fill:#ef5b5b;}.cls-14{fill:#e87c7c;}.cls-15{fill:#d85555;}</style><linearGradient id="linear-gradient" x1="88" y1="224" x2="88" gradientUnits="userSpaceOnUse"><stop offset="0" stop-color="#089196"/><stop offset="1" stop-color="#05a8aa"/></linearGradient><linearGradient id="linear-gradient-2" x1="60" y1="77.44" x2="60" y2="74.92" gradientUnits="userSpaceOnUse"><stop offset="0" stop-color="#ddd9d7"/><stop offset="1" stop-color="#f9f3ef"/></linearGradient></defs><rect class="cls-1" width="176" height="224"/><g id="tail"><path class="cls-2" d="M150.13,172.52a4,4,0,0,1-2.66,5.07c-38.13,11.24-49.31-13.1-85.37-21.46-2.76-.64-2.8-2.76-2.56-4.47h0c.24-1.71,1.34-4.09,4-3.37,34.16,9.44,46.08,32.23,81.7,21.65a4,4,0,0,1,4.94,2.58Z"/><path class="cls-3" d="M153.28,171.41h0Z"/><path class="cls-3" d="M145.19,169.94c-1.24.37-2.46.7-3.65,1,.81,2.54,1.6,5.08,2.47,7.61l.12,0,1.63-.42.53-.15,1.21-.35a4,4,0,0,0-2.31-7.64Z"/><path class="cls-3" d="M121.56,179.94a49,49,0,0,0,7.8.56c-.5-2.61-1-5.21-1.54-7.82a46.74,46.74,0,0,1-7.33-.57C120.81,174.73,121.21,177.33,121.56,179.94Z"/><path class="cls-3" d="M99.85,172.15c1.42.73,2.83,1.43,4.25,2.1.15-2.42.28-4.84.48-7.26-1.32-.61-2.63-1.25-4-1.92C100.4,167.43,100.12,169.79,99.85,172.15Z"/></g><g class="cls-4"><path class="cls-5" d="M95,162.1c-5-2.7-10.28-5.59-16.17-8.23H68.3c.1,1.33.19,2.67.29,4,9.94,3,17.94,7.24,25.38,11.19A61.41,61.41,0,0,1,95,162.1Z"/></g><g id="left_arm" data-name="left arm"><path class="cls-2" d="M151.63,62.25c.63.81.44-.48,0,0,2.46,3.15,1.91,6.74-1.93,10.49-17.86,17.42-33.28,25-58.29,28.65-5.39.79-8.54-3.22-9.36-7.63-.23-1.21-.22-.4,0,0-.83-4.41,1.88-10.23,6.39-10.37,21-.66,37.41-7.55,52.95-20.94C144.74,59.56,149.16,59.1,151.63,62.25Z"/><path class="cls-3" d="M99.4,100c3.67-.74,7.12-1.58,10.41-2.57-1.57-5-3.6-11-5.21-16a84.35,84.35,0,0,1-9,1.45C96.77,88.31,98.18,94.75,99.4,100Z"/><path class="cls-3" d="M124.43,91.62a84.78,84.78,0,0,0,9.22-5.49c-2.12-4-4.71-9.08-7-13.15a78.24,78.24,0,0,1-8.77,4.31C120,81.77,122.44,87.19,124.43,91.62Z"/><path class="cls-2" d="M146,56.19A14.8,14.8,0,0,0,149.46,54c4.13-3.17,9.47-.27,10.39,5.71,1.16,7.49-1.25,7.61-7,11-5,2.38-6.59-1.64-10.49-7.65C141.32,61.35,139.55,59.32,146,56.19Z"/><path class="cls-2" d="M143.91,52.93a14.15,14.15,0,0,1,2.65,5.21,2.89,2.89,0,0,1-1.87,3.47h0a2.39,2.39,0,0,1-3.38-1.34A17.12,17.12,0,0,0,139,55.44c-1-1.25-.88-2.73.66-3.51h0A3.4,3.4,0,0,1,143.91,52.93Z"/><path class="cls-2" d="M157.85,49.55a33.18,33.18,0,0,0-3.13,6,2.59,2.59,0,0,1-3.61,1.61c-.31-.14,0,.07,0,0a3.2,3.2,0,0,1-1.48-4.12A30.07,30.07,0,0,1,153,46.8c1.21-1.5,2.74-2.29,4.31-1.36h0C158.86,46.37,158.89,48,157.85,49.55Z"/><path class="cls-2" d="M165.44,54.68a45.46,45.46,0,0,0-6.63,4.18c-1.53,1.13-3.19,1.14-4.18-.39h0c-1-1.54-.43-3,1.05-4.24a38.06,38.06,0,0,1,6.81-4.37,3.05,3.05,0,0,1,4.07,1h0A2.58,2.58,0,0,1,165.44,54.68Z"/><path class="cls-2" d="M167,62.62a41.46,41.46,0,0,0-7.05,2.53,2.63,2.63,0,0,1-3.76-1.33c-.13-.3-.06,0,0,0A2.93,2.93,0,0,1,157.77,60a33.86,33.86,0,0,1,7.46-2.72c1.86-.3,3.26.41,3.74,2h0A2.5,2.5,0,0,1,167,62.62Z"/><path class="cls-3" d="M148.92,57.71a3.84,3.84,0,0,1,.94-.15c2.9.55,4.41.56,6.32,3.47,1.48,2.26,0,6-4.18,7.47-3.93.09-5.11-1.32-7.48-5C143.12,60.12,145.94,58,148.92,57.71Z"/></g><path class="cls-2" d="M29.46,160.5c1-.52.45.67,0,0Z"/><path class="cls-2" d="M40.17,91.8A3.53,3.53,0,0,0,37,90.27l-3.21.23c-.25.36-.5.72-.74,1.09s-.49.74-.72,1.13-.65,1-1,1.6-.47.83-.7,1.26-.44.82-.64,1.23c-.28.56-.56,1.13-.83,1.7-.1.24-.21.47-.31.71q-.33.7-.63,1.44l-.64,1.59c-.25.64-.48,1.29-.72,2-.47,1.32-.91,2.68-1.32,4.1-4.46-1.76-9.57-3.56-13.86-5.49.22-.44.44-.88.67-1.32s.48-.88.72-1.33l.75-1.32c.47-.8,1-1.59,1.47-2.39.35-.54.7-1.08,1.07-1.62s.61-.9.93-1.34l1-1.36q2.64-3.61,5.93-7.33c4.55-5.18,8.54-3.06,12.13-.26-.81-.69.36-.44.11.09a9.6,9.6,0,0,1,1.19,1.11A8.46,8.46,0,0,1,40.17,91.8Z"/><path class="cls-2" d="M29.46,160.5c1-.52.45.67,0,0Z"/><path class="cls-2" d="M40.17,91.8A3.53,3.53,0,0,0,37,90.27l-3.21.23c-.25.36-.5.72-.74,1.09s-.49.74-.72,1.13-.65,1-1,1.6-.47.83-.7,1.26-.44.82-.64,1.23c-.28.56-.56,1.13-.83,1.7-.1.24-.21.47-.31.71q-.33.7-.63,1.44l-.64,1.59c-.25.64-.48,1.29-.72,2-.47,1.32-.91,2.68-1.32,4.1-4.46-1.76-9.57-3.56-13.86-5.49.22-.44.44-.88.67-1.32s.48-.88.72-1.33l.75-1.32c.47-.8,1-1.59,1.47-2.39.35-.54.7-1.08,1.07-1.62s.61-.9.93-1.34l1-1.36q2.64-3.61,5.93-7.33c4.55-5.18,8.54-3.06,12.13-.26-.81-.69.36-.44.11.09a9.6,9.6,0,0,1,1.19,1.11A8.46,8.46,0,0,1,40.17,91.8Z"/><path class="cls-3" d="M28.89,99.22q-.33.7-.63,1.44l-.64,1.59c-.25.64-.48,1.29-.72,2-.47,1.32-.91,2.68-1.32,4.1-4.46-1.76-9.57-3.56-13.86-5.49.22-.44.44-.88.67-1.32s.48-.88.72-1.33l.75-1.32c.47-.8,1-1.59,1.47-2.39.35-.54.7-1.08,1.07-1.62s.61-.9.93-1.34l1-1.36C21.44,94.61,25.29,96.92,28.89,99.22Z"/><path class="cls-3" d="M31,103.47c-.11.13-.22.25-.32.38s-.39.46-.58.69c.18-.23.37-.45.56-.68S30.87,103.6,31,103.47Z"/><path class="cls-3" d="M22,121.34a26,26,0,0,0-.23,4.33,25,25,0,0,1,.23-4.33Z"/><path class="cls-3" d="M21.88,127.32c0,.49.1,1,.17,1.46v0h0C22,128.31,21.91,127.82,21.88,127.32Z"/><path class="cls-3" d="M22.53,131.43h0c-.13-.53-.23-1.05-.32-1.56C22.31,130.39,22.41,130.91,22.53,131.43Z"/><path class="cls-2" d="M26.9,104.2c-.47,1.32-.91,2.68-1.32,4.1-.52,1.78-1,3.65-1.4,5.59s-.76,3.79-1.07,5.77c2.31.08,4.61.16,6.92.22a3.53,3.53,0,0,1,3.42,3.76c-.06.93-.1,1.89-.13,2.85s-.06,2-.06,3A3.51,3.51,0,0,1,29.63,133q-3.39-.09-6.77-.21a47,47,0,0,0,4,9.82q2.88.41,5.76.74a3.54,3.54,0,0,1,2.91,2.31,21.38,21.38,0,0,0,2.94,5.51,3.54,3.54,0,0,1-3.27,5.58l-2.43-.27a6.18,6.18,0,0,1-3.35,4.06c1-.52.45.67,0,0a7.86,7.86,0,0,1-3.11,1c6.57,11.76,19.74,12.87,33.68,12.87,15.61,0,29.45-1.38,35.6-17.56,2.19-5.77,3.27-13.27,2.85-23,0-.37,0-.74-.07-1.12q-3.9.15-7.8.25a3.51,3.51,0,0,1-3.64-3.5c0-1,0-2-.06-3s-.08-1.9-.14-2.83a3.53,3.53,0,0,1,3.42-3.78c2.29-.06,4.57-.14,6.86-.21a84.56,84.56,0,0,0-4.56-17.43q.36,1,.72,2c-2.58-.25-5.17-.47-7.75-.65a3.5,3.5,0,0,1-3-2.26,46.59,46.59,0,0,0-2.64-5.85,3.52,3.52,0,0,1,3.37-5.17l3.17.22C79.58,80.9,70.48,75.88,60,75.88a30.23,30.23,0,0,0-22.37,9.86,8.46,8.46,0,0,1,2.51,6.06,3.42,3.42,0,0,1,.2,3.64,45.19,45.19,0,0,0-2.63,5.85,3.53,3.53,0,0,1-3,2.26c-1.35.09-2.7.2-4,.31Zm69.26,51.07q-5.91.91-11.86,1.52a3.53,3.53,0,0,1-3.13-5.72,21.24,21.24,0,0,0,3.24-5.55,3.52,3.52,0,0,1,2.87-2.17q5.59-.65,11.18-1.56A51.35,51.35,0,0,1,96.16,155.27Zm.9-35.6h0c.08.47.16.93.23,1.39C97.21,120.6,97.14,120.13,97.06,119.67Z"/><path class="cls-2" d="M29.46,160.5c1-.52.45.67,0,0Z"/><path class="cls-2" d="M33.45,123.64c-.06.93-.1,1.89-.13,2.85s-.06,2-.06,3A3.51,3.51,0,0,1,29.63,133q-3.39-.09-6.77-.21c-.13-.45-.23-.89-.33-1.32s-.23-1.05-.32-1.56c-.05-.31-.1-.61-.14-.92a.36.36,0,0,0,0-.1v0h0v0h0c0-.38.06-.77.09-1.15l.15-1.64.18-1.7.18-1.42q.2-1.64.45-3.21h0c2.31.08,4.61.16,6.92.22A3.53,3.53,0,0,1,33.45,123.64Z"/><path class="cls-2" d="M35.24,156.71l-2.43-.27c.51-2,0-4.49-1.71-7s-3-4.67-4.2-6.89q2.88.41,5.76.74a3.54,3.54,0,0,1,2.91,2.31,21.38,21.38,0,0,0,2.94,5.51A3.54,3.54,0,0,1,35.24,156.71Z"/><path class="cls-2" d="M37.66,85.74a8.46,8.46,0,0,1,2.51,6.06A3.53,3.53,0,0,0,37,90.27l-3.21.23c-.5.71-1,1.45-1.46,2.22A41.66,41.66,0,0,1,37.66,85.74Z"/><path class="cls-2" d="M82.41,101.28a46.59,46.59,0,0,0-2.64-5.85,3.52,3.52,0,0,1,3.37-5.17l3.17.22.9,1.33a1.67,1.67,0,0,0,.13.2,53.24,53.24,0,0,1,3.58,6.54c.55,1.18,1.07,2.41,1.57,3.69q.36,1,.72,2c-2.58-.25-5.17-.47-7.75-.65A3.5,3.5,0,0,1,82.41,101.28Z"/><path class="cls-2" d="M98.46,141.79a51.35,51.35,0,0,1-2.3,13.48q-5.91.91-11.86,1.52a3.53,3.53,0,0,1-3.13-5.72,21.24,21.24,0,0,0,3.24-5.55,3.52,3.52,0,0,1,2.87-2.17Q92.88,142.7,98.46,141.79Z"/><path class="cls-2" d="M90.19,119.88l6.87-.21c.17,1,.32,2,.46,3.1.29,2.11.51,4.29.68,6.53.08,1.12.15,2.26.21,3.41q-3.9.15-7.8.25a3.51,3.51,0,0,1-3.64-3.5c0-1,0-2-.06-3s-.08-1.9-.14-2.83A3.53,3.53,0,0,1,90.19,119.88Z"/><path class="cls-3" d="M35.24,156.71l-2.43-.27c.51-2,0-4.49-1.71-7s-3-4.67-4.2-6.89q2.88.41,5.76.74a3.54,3.54,0,0,1,2.91,2.31,21.38,21.38,0,0,0,2.94,5.51A3.54,3.54,0,0,1,35.24,156.71Z"/><path class="cls-3" d="M98.46,141.79a51.35,51.35,0,0,1-2.3,13.48q-5.91.91-11.86,1.52a3.53,3.53,0,0,1-3.13-5.72,21.24,21.24,0,0,0,3.24-5.55,3.52,3.52,0,0,1,2.87-2.17Q92.88,142.7,98.46,141.79Z"/><path class="cls-3" d="M98.41,132.71q-3.9.15-7.8.25a3.51,3.51,0,0,1-3.64-3.5c0-1,0-2-.06-3s-.08-1.9-.14-2.83a3.53,3.53,0,0,1,3.42-3.78l6.87-.21c.17,1,.32,2,.46,3.1.28,2.11.5,4.29.68,6.53C98.28,130.42,98.35,131.56,98.41,132.71Z"/><path class="cls-3" d="M33.45,123.64c-.06.93-.1,1.89-.13,2.85s-.06,2-.06,3A3.51,3.51,0,0,1,29.63,133q-3.39-.09-6.77-.21c-.13-.45-.23-.89-.33-1.32s-.23-1.05-.32-1.56c-.05-.31-.1-.61-.14-.92a.36.36,0,0,0,0-.1v-.07c0-.38.06-.77.09-1.15l.15-1.64.18-1.7.18-1.42q.2-1.64.45-3.21h0c2.31.08,4.61.16,6.92.22A3.53,3.53,0,0,1,33.45,123.64Z"/><path class="cls-3" d="M93.21,104.19c-2.58-.25-5.17-.47-7.75-.65a3.5,3.5,0,0,1-3-2.26,46.59,46.59,0,0,0-2.64-5.85,3.52,3.52,0,0,1,3.37-5.17l3.17.22.9,1.33a1.67,1.67,0,0,0,.13.2,56.05,56.05,0,0,1,3.58,6.54c.54,1.18,1.06,2.41,1.57,3.69Q92.85,103.2,93.21,104.19Z"/><path class="cls-3" d="M40.37,95.44a45.19,45.19,0,0,0-2.63,5.85,3.53,3.53,0,0,1-3,2.26c-1.35.09-2.7.2-4,.3.1-.13.21-.25.32-.38-.12.13-.24.26-.34.39-1.25.1-2.5.22-3.75.34.24-.66.47-1.31.72-2l.64-1.59q.3-.73.63-1.44c.1-.24.21-.47.31-.71.27-.57.55-1.14.83-1.7.2-.41.42-.82.64-1.23s.46-.85.7-1.26.63-1.08,1-1.6c.47-.77,1-1.51,1.46-2.22L37,90.27a3.53,3.53,0,0,1,3.17,1.53A3.42,3.42,0,0,1,40.37,95.44Z"/><g id="head"><path class="cls-2" d="M93.62,26.89c-4.68,5.31-9.19,2.42-14.09-1.9s-8.33-8.43-3.66-13.74,19.76-6,20.58-5C99,8.78,98.3,21.58,93.62,26.89Z"/><path class="cls-3" d="M93.62,26.89c-4.68,5.31-2.46,7.36-14.09-1.9-5.1-4.07-2.87-4.77,1.7-10.17,3.39-4,9.55-7.33,15.22-8.62C99,8.78,98.3,21.58,93.62,26.89Z"/><path class="cls-2" d="M26.62,26.89c4.68,5.31,9.19,2.42,14.09-1.9s8.34-8.43,3.66-13.74-19.76-6-20.58-5C21.22,8.78,21.94,21.58,26.62,26.89Z"/><path class="cls-3" d="M26.62,26.89c4.68,5.31,9.19,2.42,14.09-1.9s2.87-4.77-1.7-10.17c-3.39-4-9.55-7.33-15.22-8.62C21.22,8.78,21.94,21.58,26.62,26.89Z"/><path class="cls-2" d="M93.15,31.12c-.83-19-15-24.35-33-24.35s-32.2,5.3-33,24.35C20,37.47,17,47.89,19.29,56.42c3,11,12.54,29.08,25.84,29.94h30C88,85.66,97.65,67.88,101,56.42,103.42,47.82,100.24,37.47,93.15,31.12Z"/><path class="cls-3" d="M100.5,42.54c-2-.6-3.41-1-5.82-1.72-.12.82-.27,1.65-.44,2.49a60.87,60.87,0,0,1-5.9,16c-1.31,2.49-.55,5.23,1.54,5.95,2.68.93,4,1.4,6.59,2.32.3-.56.58-1.15.87-1.74a61.83,61.83,0,0,0,3.18-8c.15-.47.3-.92.43-1.39A23.85,23.85,0,0,0,100.5,42.54Z"/><path class="cls-3" d="M19.74,42.54c2-.6,3.41-1,5.82-1.72.13.82.27,1.65.44,2.49a61.23,61.23,0,0,0,5.9,16c1.32,2.49.56,5.23-1.54,5.95-2.68.93-4,1.4-6.58,2.32-.31-.56-.59-1.15-.88-1.74a61.83,61.83,0,0,1-3.18-8c-.14-.47-.3-.92-.43-1.39A23.94,23.94,0,0,1,19.74,42.54Z"/><polygon class="cls-6" points="65.45 23.31 77.81 26.17 77.92 24.89 65.65 21.09 65.45 23.31"/><path class="cls-7" d="M68.21,50.32c0,4.47-5.31,9.34-8.09,9.34S52,54.79,52,50.32s3.62-4,8.08-4S68.21,45.86,68.21,50.32Z"/><path class="cls-8" d="M69.52,74.92a19.22,19.22,0,0,1-19,0"/><ellipse class="cls-9" cx="69.54" cy="37.34" rx="7.16" ry="8.76"/><circle class="cls-6" cx="69.4" cy="40.4" r="3.86"/><circle class="cls-9" cx="70.84" cy="38.13" r="0.85"/><polygon class="cls-6" points="54.79 23.31 42.43 26.17 42.32 24.89 54.59 21.09 54.79 23.31"/><ellipse class="cls-9" cx="50.71" cy="37.34" rx="7.16" ry="8.76"/><circle class="cls-6" cx="50.84" cy="40.4" r="3.86"/><circle class="cls-9" cx="52.28" cy="38.13" r="0.85"/><path class="cls-6" d="M79.16,55.28A.16.16,0,0,1,79,55.2a.15.15,0,0,1,.06-.21,74.36,74.36,0,0,1,27.52-9.12.16.16,0,0,1,0,.31,74,74,0,0,0-27.41,9.08A.11.11,0,0,1,79.16,55.28Z"/><path class="cls-6" d="M80.67,57.3a.16.16,0,0,1-.06-.3,74.24,74.24,0,0,1,28.61-4.7.14.14,0,0,1,.15.16.15.15,0,0,1-.15.15h0a74,74,0,0,0-28.49,4.68Z"/><path class="cls-6" d="M108.77,61.67h0A74.12,74.12,0,0,0,79.9,60a.15.15,0,0,1-.18-.13.17.17,0,0,1,.14-.18,74.37,74.37,0,0,1,29,1.65.15.15,0,0,1,.11.19A.15.15,0,0,1,108.77,61.67Z"/><path class="cls-6" d="M41.08,55.28a.11.11,0,0,1-.08,0,74,74,0,0,0-27.41-9.08.16.16,0,0,1,0-.31A74.36,74.36,0,0,1,41.15,55a.14.14,0,0,1,.06.21A.16.16,0,0,1,41.08,55.28Z"/><path class="cls-6" d="M39.57,57.3h0A74,74,0,0,0,11,52.61a.16.16,0,0,1-.16-.15A.14.14,0,0,1,11,52.3,74.12,74.12,0,0,1,39.63,57a.16.16,0,0,1-.06.3Z"/><path class="cls-6" d="M11.48,61.67a.16.16,0,0,1-.16-.11.15.15,0,0,1,.12-.19,74.31,74.31,0,0,1,28.94-1.65.17.17,0,0,1,.14.18.14.14,0,0,1-.18.13,74.13,74.13,0,0,0-28.83,1.64Z"/></g><path class="cls-10" d="M25.37,159.54c.22.49.45,1,.69,1.43,3.27,14.14,5.31,27,9,51.25H49.62c1-14.27,2.83-31.07,3.83-33.33.86-1.94,3.38-3.41,6.67-4,3.29.61,5.81,2.08,6.67,4,1,2.26,2.8,19.06,3.83,33.33H85.16c3.3-22.31,4.58-31.43,9.29-52.48-6.29,2.86-19.3,4.82-34.33,4.82C44.75,164.56,31.49,162.51,25.37,159.54Z"/><path class="cls-3" d="M110.26,209.86c0,6.27-9,8.31-20.07,8.31s-20.06-2-20.06-8.31c20.06,11.27,24.42-4.93,35.88-7C108.67,204.8,110.26,207.22,110.26,209.86Z"/><path class="cls-2" d="M106,202.87c-3.87.69-7.06,3.1-10.14,5.38-3.23,2.39-6.61,4.73-10.67,5.37a17.61,17.61,0,0,1-7.15-.44,26.67,26.67,0,0,1-4.42-1.56c-.81-.36-1.61-.75-2.4-1.16-.27-.15-1-.4-1.1-.67a2.14,2.14,0,0,1,.06-.83c.74-5.43,7.14-8.29,11.8-9.47,7-1.79,15.31-1.38,21.82,2A9,9,0,0,1,106,202.87Z"/><path class="cls-6" d="M103.93,216.53a8.14,8.14,0,0,0-.25-2,7.75,7.75,0,0,0-.73-1.78,6.73,6.73,0,0,0-2.82-2.69,3.68,3.68,0,0,1,2.06.64,4.6,4.6,0,0,1,1.51,1.62,5.08,5.08,0,0,1,.64,2.11A3.65,3.65,0,0,1,103.93,216.53Z"/><path class="cls-6" d="M108.68,213.81a10.85,10.85,0,0,0-.81-4.38,8.55,8.55,0,0,0-1.13-1.87c-.46-.58-1-1.13-1.54-1.7a6.12,6.12,0,0,1,3.47,3.22A5.9,5.9,0,0,1,108.68,213.81Z"/><path class="cls-3" d="M10,209.86c0,6.27,9,8.31,20.07,8.31s20.07-2,20.07-8.31c-20.07,11.27-24.43-4.93-35.88-7C11.57,204.8,10,207.22,10,209.86Z"/><path class="cls-2" d="M14.24,202.87c3.87.69,7,3.1,10.13,5.38S31,213,35,213.62a17.61,17.61,0,0,0,7.15-.44,26.67,26.67,0,0,0,4.42-1.56c.82-.36,1.61-.75,2.4-1.16.27-.15,1-.4,1.11-.67a2.61,2.61,0,0,0-.06-.83c-.75-5.43-7.15-8.29-11.81-9.47-7-1.79-15.31-1.38-21.82,2A8.79,8.79,0,0,0,14.24,202.87Z"/><path class="cls-6" d="M16.31,216.53a7.69,7.69,0,0,1,.26-2,7,7,0,0,1,.73-1.78,6.65,6.65,0,0,1,2.81-2.69,3.71,3.71,0,0,0-2.06.64,4.6,4.6,0,0,0-1.51,1.62,5.08,5.08,0,0,0-.64,2.11A3.73,3.73,0,0,0,16.31,216.53Z"/><path class="cls-6" d="M11.56,213.81a11,11,0,0,1,.81-4.38,8.55,8.55,0,0,1,1.13-1.87c.46-.58,1-1.13,1.54-1.7a6.15,6.15,0,0,0-3.47,3.22A6,6,0,0,0,11.56,213.81Z"/><g class="cls-4"><path class="cls-5" d="M84.41,80.25a3.81,3.81,0,1,0-7.56,1,316.26,316.26,0,0,1,.82,74.62c-.25,2.35-.52,4.71-.82,7.06a3.81,3.81,0,1,0,7.56,1c.35-2.68.65-5.36.93-8A324.59,324.59,0,0,0,84.41,80.25Z"/></g><path class="cls-11" d="M84.79,80.25a3.81,3.81,0,1,0-7.56,1,316.26,316.26,0,0,1,.82,74.62h7.67A324.59,324.59,0,0,0,84.79,80.25Z"/><path class="cls-12" d="M80.49,167.24a3.83,3.83,0,0,0,4.3-3.35c.35-2.68.65-5.36.93-8H78.05c-.25,2.35-.52,4.71-.82,7.06A3.86,3.86,0,0,0,80.49,167.24Z"/><g class="cls-4"><path class="cls-5" d="M35.83,80.25a3.81,3.81,0,1,1,7.56,1,316.79,316.79,0,0,0-.82,74.62c.25,2.35.52,4.71.82,7.06a3.81,3.81,0,1,1-7.56,1c-.35-2.68-.65-5.36-.93-8A324.59,324.59,0,0,1,35.83,80.25Z"/></g><path class="cls-11" d="M35.45,80.25a3.81,3.81,0,1,1,7.56,1,317.33,317.33,0,0,0-.82,74.62H34.52A324.59,324.59,0,0,1,35.45,80.25Z"/><path class="cls-12" d="M39.76,167.24a3.83,3.83,0,0,1-4.31-3.35c-.35-2.68-.65-5.36-.93-8h7.67c.25,2.35.52,4.71.82,7.06A3.85,3.85,0,0,1,39.76,167.24Z"/><g id="bow_tie" data-name="bow tie"><g class="cls-4"><path class="cls-5" d="M82.69,76.47c-5.35,0-13.4,2.54-17.28,6.54A5.1,5.1,0,0,0,61,80.32H59.25A5.07,5.07,0,0,0,54.84,83C51,79,42.9,76.47,37.55,76.47c-7.25,0-3.95,5.39-3.95,12s-3.3,12,3.95,12c5.19,0,12.92-3.12,16.92-7.32a5.16,5.16,0,0,0,4.78,3.47H61a5.15,5.15,0,0,0,4.78-3.47c4,4.2,11.73,7.32,16.92,7.32,7.25,0,4-5.39,4-12S89.94,76.47,82.69,76.47Z"/></g><path class="cls-13" d="M88.21,87.39c0,6.65,3.5,12-4.19,12s-20.69-6.1-20.69-12.75S76.34,75.35,84,75.35,88.21,80.74,88.21,87.39Z"/><path class="cls-13" d="M32,87.39c0,6.65-3.49,12,4.19,12s20.69-6.1,20.69-12.75-13-11.34-20.69-11.34S32,80.74,32,87.39Z"/><rect class="cls-14" x="53.75" y="79.21" width="12.74" height="16.38" rx="6.28"/><path class="cls-15" d="M86.57,96.89c0,.9-3.49,1-7.74-.07a31.56,31.56,0,0,1-8.71-4s7.26,1.2,12.12,1.6C86.59,94.73,86.6,96,86.57,96.89Z"/><path class="cls-15" d="M33.42,96.89c0,.9,3.5,1,7.74-.07a31.39,31.39,0,0,0,8.71-4s-7.26,1.2-12.12,1.6C33.4,94.73,33.39,96,33.42,96.89Z"/></g><g class="cls-4"><path class="cls-5" d="M41.26,161.09Z"/></g><g class="cls-4"><path class="cls-5" d="M46.71,170.77l0,0Z"/></g><g class="cls-4"><path class="cls-5" d="M41.05,161a3.67,3.67,0,0,0-.6-.36,1.87,1.87,0,0,0,.3-.26,2.76,2.76,0,0,0,.24-3.76,13.63,13.63,0,0,0-4.39-3.49,3.58,3.58,0,0,0-2.67-.2l-.2-.07a30.09,30.09,0,0,0-2-4.12c-1.37-2.52-3-4.67-4.2-6.88a46.8,46.8,0,0,1-4-9.83q-.18-.66-.33-1.32c-.12-.52-.23-1-.31-1.56-.06-.3-.11-.61-.15-.92a.37.37,0,0,0,0-.09v0h0c-.07-.49-.13-1-.16-1.48s-.09-1.06-.12-1.58c0,.32-.07.65-.11,1l-.15,1.64c0,.38-.07.77-.09,1.15v.07a.36.36,0,0,1,0,.1c0,.31.09.61.14.92.09.51.19,1,.32,1.56s.2.87.33,1.32a47,47,0,0,0,4,9.82c1.19,2.22,2.6,4.51,4.2,6.89s2.22,4.94,1.71,7a6.18,6.18,0,0,1-3.35,4.06c1-.52.45.67,0,0a7.86,7.86,0,0,1-3.11,1,21.53,21.53,0,0,0,8.81,8.7l.21-.06c.05.08.1.17.16.25A30.48,30.48,0,0,0,43,173a3.88,3.88,0,0,0-.27-.93,37.38,37.38,0,0,0-2.88-5,32,32,0,0,1,2.41,2.45c1.17,1.35,2.69,1.74,3.94.53s.92-2.83-.16-4.32A29,29,0,0,0,41.05,161Z"/></g><g class="cls-4"><path class="cls-5" d="M46.71,170.77Z"/></g><g class="cls-4"><path class="cls-5" d="M42.14,176.68Z"/></g><g class="cls-4"><path class="cls-5" d="M36.34,178.73Z"/></g><path class="cls-2" d="M36.66,158.09a14.85,14.85,0,0,0,2,3.34c2.95,4,0,9.08-5.71,9.83-7.21.94-7.27-1.37-10.43-7-2.17-4.81,1.72-6.28,7.57-9.88C31.82,153.45,33.81,151.8,36.66,158.09Z"/><path class="cls-2" d="M36,153.84a13.63,13.63,0,0,1,4.39,3.49,2.76,2.76,0,0,1-.24,3.76h0a2.28,2.28,0,0,1-3.48.19,16.75,16.75,0,0,0-3.94-3.3,2,2,0,0,1-.82-3.31h0A3.26,3.26,0,0,1,36,153.84Z"/><path class="cls-2" d="M41.59,170.21a32.21,32.21,0,0,0-4.78-4.42,2.49,2.49,0,0,1-.59-3.75c.21-.26,0,0,0,0a3.09,3.09,0,0,1,4.19-.33,28.59,28.59,0,0,1,5,4.7c1.09,1.49,1.43,3.11.17,4.32h0C44.27,172,42.76,171.56,41.59,170.21Z"/><path class="cls-2" d="M37.37,175.52a43.57,43.57,0,0,0-3.86-6.46c-1-1.48-1-3.08.48-4h0c1.5-.92,2.88-.35,4,1.1a36.73,36.73,0,0,1,4,6.63A2.92,2.92,0,0,1,41,176.68h0A2.47,2.47,0,0,1,37.37,175.52Z"/><path class="cls-2" d="M31.61,177.55a39.34,39.34,0,0,0-3.85-6.07,2.53,2.53,0,0,1,.47-3.8c.25-.18-.05,0,0,0a2.81,2.81,0,0,1,3.95.71,32.53,32.53,0,0,1,4.1,6.42c.67,1.67.3,3.13-1.08,3.92,0,.13,0,0,0,0A2.4,2.4,0,0,1,31.61,177.55Z"/><path class="cls-10" d="M43.76,163.73c-9,4.82-9.24,8.45-15.13,9.31L32.12,188l16.25-3.9L50.9,166.6Z"/><path class="cls-2" d="M32.81,156.44c-1.22,1.27-1.56,3.14-3.35,4.06a7.86,7.86,0,0,1-3.11,1c-2.16.13-3.92-1.42-6.71-5.4C5.84,136.38,3.28,120,11.72,102.81c4.29,1.93,9.4,3.73,13.86,5.49-.52,1.78-1,3.65-1.4,5.59A26.68,26.68,0,0,0,22,121.34c-4.47-.38-10.75-.77-15.06-1.23,1.46,1.12,2.5,8,1,11.71,4-.2,9.71-.33,13.88-.38h.66c.1.43.2.87.33,1.32a47,47,0,0,0,4,9.82c1.19,2.22,2.83,4.37,4.2,6.89C33.28,153.47,34,155.22,32.81,156.44Z"/><path class="cls-3" d="M22.53,131.43h-.66c-4.17.05-9.89.18-13.88.38a41.89,41.89,0,0,1-1-11.71c4.31.46,10.59.85,15.06,1.23a25,25,0,0,0-.23,4.33c0,.55,0,1.1.1,1.65s.09,1,.16,1.49h0v0a.36.36,0,0,1,0,.1c0,.31.09.61.14.92C22.3,130.38,22.4,130.9,22.53,131.43Z"/><path class="cls-6" d="M44.85,62.33a84.6,84.6,0,0,0,30.6,0s-7.81,9.53-15.3,9.53S44.85,62.33,44.85,62.33Z"/><path class="cls-14" d="M60.15,71.86a14.81,14.81,0,0,0,7.78-2.78,15.73,15.73,0,0,0-7.78-1.78,15.8,15.8,0,0,0-7.79,1.78A14.84,14.84,0,0,0,60.15,71.86Z"/></svg>